<?xml version="1.0" encoding="UTF-8" standalone="no"?>
<!-- Created with Inkscape (http://www.inkscape.org/) -->

<svg
   width="33.042717mm"
   height="33.050797mm"
   viewBox="0 0 33.042717 33.050797"
   version="1.1"
   id="svg5"
   xml:space="preserve"
   inkscape:version="1.2.1 (9c6d41e410, 2022-07-14)"
   sodipodi:docname="harambe.svg"
   xmlns:inkscape="http://www.inkscape.org/namespaces/inkscape"
   xmlns:sodipodi="http://sodipodi.sourceforge.net/DTD/sodipodi-0.dtd"
   xmlns="http://www.w3.org/2000/svg"
   xmlns:svg="http://www.w3.org/2000/svg"><sodipodi:namedview
     id="namedview7"
     pagecolor="#ffffff"
     bordercolor="#666666"
     borderopacity="1.0"
     inkscape:showpageshadow="2"
     inkscape:pageopacity="0.0"
     inkscape:pagecheckerboard="0"
     inkscape:deskcolor="#d1d1d1"
     inkscape:document-units="mm"
     showgrid="false"
     inkscape:zoom="4.5455617"
     inkscape:cx="33.769204"
     inkscape:cy="37.72911"
     inkscape:window-width="2558"
     inkscape:window-height="1418"
     inkscape:window-x="2560"
     inkscape:window-y="20"
     inkscape:window-maximized="1"
     inkscape:current-layer="g404" /><defs
     id="defs2"><marker
       id="DistanceX"
       orient="auto"
       refX="0"
       refY="0"
       style="overflow:visible"><path
         d="M 3,-3 -3,3 M 0,-5 V 5"
         style="stroke:#000000;stroke-width:0.5"
         id="path150" /></marker><pattern
       id="Hatch"
       patternUnits="userSpaceOnUse"
       width="8"
       height="8"
       x="0"
       y="0"><path
         d="M8 4 l-4,4"
         stroke="#000000"
         stroke-width="0.25"
         linecap="square"
         id="path153" /><path
         d="M6 2 l-4,4"
         stroke="#000000"
         stroke-width="0.25"
         linecap="square"
         id="path155" /><path
         d="M4 0 l-4,4"
         stroke="#000000"
         stroke-width="0.25"
         linecap="square"
         id="path157" /></pattern></defs><g
     inkscape:label="Layer 1"
     inkscape:groupmode="layer"
     id="layer1"
     transform="translate(-110.26261,-179.38628)"><g
       id="g538"
       transform="matrix(0.26458333,0,0,0.26458333,103.5332,-80.599943)"><g
         inkscape:label="0"
         id="g162" /><g
         inkscape:label="Layer 1"
         id="g404"><path
           id="path402"
           style="fill:#000000;stroke:none;stroke-width:0.623622;stroke-dasharray:none;fill-opacity:1"
           d="m 53.9837,1106.19 c -1.793349,-0.4485 -3.537896,-1.119 -5.1991,-1.93 -1.665669,-0.8132 -3.250647,-1.8063 -4.7323,-2.92 -1.46013,-1.0975 -3.176741,-2.0813 -4.0604,-3.68 -1.590182,-2.8769 -1.067926,-6.4884 -1.7208,-9.71 -0.323929,-1.5984 -0.66118,-3.1962 -1.0892,-4.77 -0.430351,-1.5823 -1.240863,-3.0684 -1.4848,-4.69 -0.223147,-1.4834 -0.05718,-3.0028 0.0359,-4.5 0.09683,-1.5575 0.488805,-3.0904 0.5428,-4.65 0.02367,-0.6837 0.04317,-1.3803 -0.0964,-2.05 -0.122256,-0.5866 -0.291558,-1.1924 -0.6399,-1.68 -0.35441,-0.4961 -0.859553,-0.8994 -1.4059,-1.17 -0.734251,-0.3637 -1.728726,-0.074 -2.3958,-0.55 -1.454916,-1.0377 -2.002321,-2.9691 -2.8356,-4.55 -0.873863,-1.6579 -1.650275,-3.3764 -2.2558,-5.15 -0.29642,-0.8682 -0.516856,-1.7651 -0.668,-2.67 -0.148269,-0.8877 -0.244038,-1.7901 -0.2315,-2.69 0.01234,-0.8856 0.09837,-1.7779 0.3015,-2.64 0.20826,-0.8839 0.546938,-1.7375 0.9318,-2.56 1.491581,-3.1878 3.42994,-6.1504 5.3031,-9.13 0.930519,-1.4802 1.864867,-2.9655 2.9453,-4.34 1.09235,-1.3897 2.407089,-2.5904 3.5603,-3.93 1.160169,-1.3477 2.157301,-2.8359 3.377,-4.13 1.211157,-1.285 2.54807,-2.4488 3.8956,-3.59 2.710601,-2.2956 5.581309,-4.3958 8.4132,-6.54 0.689617,-0.5221 1.347619,-1.0937 2.0886,-1.54 0.756807,-0.4558 1.57151,-0.8123 2.3879,-1.15 1.683842,-0.6964 3.477269,-1.105 5.1617,-1.8 1.64624,-0.6793 3.34143,-1.3135 4.8174,-2.31 0.73292,-0.4948 1.396045,-1.1073 1.9581,-1.79 0.605355,-0.7353 1.058426,-1.5894 1.4869,-2.44 0.951414,-1.8888 1.438959,-3.98816 2.3883,-5.878 0.968208,-1.9274 2.073093,-3.79842 3.3551,-5.533 0.627595,-0.84915 1.341814,-1.63781 2.1074,-2.365 0.753218,-0.71544 1.55874,-1.38569 2.4303,-1.951 0.874265,-0.56707 1.805918,-1.06041 2.781,-1.428 1.015672,-0.38289 2.078266,-0.68187 3.1578,-0.795 0.93837,-0.0983 1.899604,-0.0584 2.8285,0.107 0.856845,0.15258 1.69573,0.43654 2.4828,0.808 0.775851,0.36617 1.4972,0.85144 2.1706,1.383 0.688026,0.5431 1.32429,1.15893 1.8894,1.829 1.167747,1.38463 2.15324,2.92178 3.0665,4.486 0.88768,1.5204 1.81393,3.05638 2.332,4.739 0.42575,1.38278 0.18498,2.91377 0.606,4.298 0.38788,1.2753 0.93706,2.5368 1.741,3.6 0.78394,1.0368 1.81782,1.8931 2.915,2.59 0.58511,0.3716 1.25025,0.6105 1.911,0.82 0.72072,0.2285 1.55827,0.1025 2.219,0.47 1.53735,0.8552 2.5434,2.4441 3.652,3.81 1.11679,1.376 2.10172,2.8617 2.999,4.39 0.89952,1.5321 1.6797,3.1364 2.378,4.77 0.69341,1.6222 1.2279,3.3084 1.792,4.98 0.68284,2.0234 1.33796,4.0573 1.927,6.11 0.59453,2.0719 0.99212,4.1983 1.621,6.26 0.62073,2.035 1.26265,4.0733 2.121,6.02 0.42718,0.9688 0.93326,1.9056 1.5,2.8 0.57741,0.9112 1.15817,1.8433 1.927,2.6 1.15399,1.1358 2.67206,1.8331 3.948,2.83 1.27349,0.9949 2.58417,1.9653 3.694,3.14 1.08507,1.1485 2.07168,2.4107 2.86,3.78 0.40216,0.6985 0.69792,1.4596 0.935,2.23 0.2511,0.8159 0.31744,1.6781 0.509,2.51 0.73155,3.177 1.69433,6.2973 2.444,9.47 0.37318,1.5793 0.77379,3.1563 1.022,4.76 0.24994,1.6149 0.12339,3.2826 0.468,4.88 0.28972,1.3429 1.13443,2.5406 1.333,3.9 0.2001,1.3699 0.15588,2.8028 -0.163,4.15 -0.14078,0.5948 -0.39591,1.1769 -0.757,1.67 -0.33579,0.4586 -0.76298,0.8792 -1.268,1.14 -0.554,0.2861 -1.20151,0.4069 -1.825,0.41 -0.82768,0 -1.62085,-0.3368 -2.428,-0.52 -0.78023,-0.1771 -1.53803,-0.479 -2.334,-0.56 -0.81522,-0.083 -1.64317,-0.016 -2.457,0.08 -1.71987,0.2022 -3.38962,0.7121 -5.09,1.04 -0.84326,0.1626 -1.68102,0.3691 -2.535,0.46 -0.81682,0.087 -1.64576,0.1629 -2.463,0.08 -0.7989,-0.081 -1.60704,-0.2388 -2.343,-0.56 -0.79809,-0.3483 -1.55671,-0.8348 -2.173,-1.45 -0.59345,-0.5924 -1.00644,-1.3496 -1.4,-2.09 -0.38686,-0.7278 -0.68391,-1.5043 -0.933,-2.29 -0.50556,-1.5947 -0.73184,-3.2651 -1.13,-4.89 -0.39665,-1.6187 -0.67504,-3.2772 -1.254,-4.84 -0.28633,-0.7729 -0.64562,-1.5252 -1.089,-2.22 -0.46117,-0.7227 -1.06655,-1.3428 -1.617,-2 -1.05111,-1.255 -2.24492,-2.3935 -3.218,-3.71 -0.95561,-1.2928 -1.8322,-2.6545 -2.556,-4.09 -0.71945,-1.4269 -1.32938,-2.9206 -1.758,-4.46 -0.43889,-1.5763 -0.36798,-3.2671 -0.819,-4.84 -0.18086,-0.6307 -0.29459,-1.3476 -0.75,-1.82 -0.2288,-0.2373 -0.57148,-0.4374 -0.9,-0.41 -0.40363,0.034 -0.71381,0.4006 -1.007,0.68 -0.4308,0.4106 -0.74321,0.932 -1.069,1.43 -0.79537,1.2159 -1.39297,2.5517 -2.153,3.79 -0.5958,0.9707 -1.32811,1.8564 -1.885,2.85 -1.194615,2.1314 -2.101106,4.4123 -3.1047,6.64 -0.498447,1.1064 -1.057558,2.1912 -1.4484,3.34 -0.364234,1.0706 -1.611539,2.4741 -0.8284,3.29 0.610122,0.6356 1.707867,-0.4883 2.5874,-0.54 0.829512,-0.049 1.673415,0.033 2.4831,0.22 0.80078,0.1847 1.57698,0.495 2.303,0.88 0.73485,0.3897 1.42022,0.8809 2.045,1.43 0.63679,0.5597 1.20953,1.1979 1.713,1.88 0.50785,0.688 0.94798,1.432 1.303,2.21 0.35612,0.7804 0.63802,1.6013 0.818,2.44 0.18062,0.8417 0.26326,1.7091 0.256,2.57 -0.009,1.0269 -0.0387,2.0837 -0.357,3.06 -0.27772,0.8517 -0.74697,1.653 -1.322,2.34 -0.57731,0.6897 -1.31935,1.2385 -2.079,1.72 -0.81511,0.5167 -1.71134,0.9076 -2.621,1.23 -1.95062,0.6913 -4.00309,1.0581 -6.027,1.49 -1.87651,0.4005 -3.776032,0.6843 -5.6652,1.02 -2.090128,0.3714 -4.174402,0.7792 -6.2729,1.1 -2.113363,0.323 -4.252592,0.469 -6.3598,0.83 -2.084441,0.3571 -4.172682,0.7372 -6.2056,1.32 -1.01251,0.2903 -2.006089,0.6545 -2.9696,1.08 -0.978293,0.4321 -1.973992,0.8644 -2.8414,1.49 -0.498835,0.3598 -0.800178,0.9658 -1.3289,1.28 -0.466537,0.2772 -1.013512,0.4275 -1.5526,0.49 -1.193489,0.1383 -3.5943,-0.27 -3.5943,-0.27 v 0 c 0,0 -3.678243,-0.2944 -5.46,-0.74 z"
           sodipodi:nodetypes="sssssssssssssssssssssssssssssssssssssssssssssssssssssssssssssssssssssssssssssssssssssssssssssssssssssssssssssssssssssssss" /></g></g></g></svg>
