M48
FMAT,2
METRIC,TZ
T3C0.200
T2C0.650
T1C1.000
%
G90
G05
M71
T3
X-32.140Y2.548
X-1.327Y-5.260
X-40.448Y6.912
X-4.000Y19.000
X-16.013Y-9.382
X-16.000Y13.000
X-47.104Y4.306
X-26.112Y7.936
X-27.136Y1.408
X-59.392Y-4.992
X-9.000Y9.000
X-52.000Y-9.000
X-6.000Y-19.000
X-48.000Y8.000
X-61.056Y14.080
X-18.000Y10.000
X-65.000Y-5.000
X-65.000Y-7.000
X-46.592Y6.656
X-52.480Y5.632
X-20.480Y12.928
X-45.056Y-3.700
X-21.129Y5.918
X-65.000Y10.000
X-52.000Y-7.000
X-43.000Y19.000
X-16.000Y10.000
X-38.528Y3.072
X-57.344Y7.540
X-47.104Y15.720
X-29.184Y-3.250
X-45.000Y15.000
X-65.000Y8.000
X-16.000Y19.000
X-20.736Y-2.176
X-35.200Y3.840
X-65.000Y19.000
X-21.504Y-12.544
X-4.000Y15.000
X-42.000Y-13.000
X-52.000Y2.000
X-26.752Y-18.560
X-20.864Y-5.376
X-65.000Y-9.000
X-31.488Y6.400
X-35.750Y15.250
X-16.128Y-16.256
X-16.135Y-10.020
X-24.448Y-18.560
X-20.748Y1.536
X-4.608Y9.344
X-58.624Y0.384
X-27.776Y5.250
X-27.136Y-2.176
X-51.000Y13.000
X-52.000Y4.000
X-9.216Y-12.672
X-34.954Y-16.314
X-8.000Y-19.000
X-54.272Y14.348
X-45.312Y-1.024
X-26.112Y-0.512
X-21.760Y5.760
X-50.000Y10.000
X-19.000Y19.000
X-52.000Y9.000
X-31.471Y3.311
X-8.000Y19.000
X-17.536Y0.512
X-51.840Y7.424
X-1.327Y-6.260
X-18.000Y-19.000
X-17.408Y1.408
X-45.728Y1.586
X-9.000Y17.000
X-48.384Y-0.768
X-52.831Y-9.075
X-31.202Y-1.250
X-35.000Y19.000
X-17.000Y-1.000
X-16.000Y7.000
X-16.000Y-12.288
X-18.000Y13.000
X-30.461Y-1.629
X-16.000Y-19.000
X-15.000Y-4.000
X-45.976Y15.392
X-22.400Y-18.560
X-16.000Y5.000
X-47.000Y-19.000
X-39.552Y3.178
X-27.264Y6.400
X-41.728Y-11.520
X-18.000Y-17.000
X-65.024Y-1.536
X-4.000Y-17.000
X-53.000Y12.000
X-45.704Y0.904
X-47.929Y-1.286
X-21.760Y1.362
X-56.832Y-1.792
X-20.000Y-19.000
X-34.432Y-13.164
X-42.000Y14.000
X-45.952Y13.056
X-25.216Y-8.064
X-15.000Y1.000
X-38.912Y-0.500
X-3.692Y-7.808
X-24.576Y10.175
X-48.000Y11.000
X-27.136Y-6.784
X-48.389Y-1.786
X-36.000Y12.000
X-41.088Y1.536
X-51.200Y15.488
X-65.000Y17.000
X-42.624Y-3.572
X-48.000Y5.000
X-4.000Y-19.000
X-21.748Y-2.142
X-57.344Y-14.848
X-54.000Y-13.000
X-65.024Y14.208
X-65.000Y5.000
X-31.000Y19.000
X-16.000Y16.000
X-29.961Y-1.183
X-26.112Y-13.184
X-4.000Y17.000
X-33.782Y-13.164
X-65.000Y-11.000
X-46.592Y13.184
X-55.808Y5.376
X-34.304Y-16.314
X-33.280Y-7.552
X-50.000Y7.000
X-44.032Y7.040
X-4.000Y13.000
X-19.000Y7.000
X-41.472Y-10.240
X-43.008Y-9.344
X-37.000Y-13.000
X-23.680Y-13.056
X-49.000Y2.000
X-14.208Y6.272
X-19.712Y18.048
X-58.438Y-7.750
X-59.648Y-8.750
X-53.760Y15.488
X-43.230Y0.990
X-36.864Y1.408
X-47.232Y-9.216
X-46.000Y-17.000
X-46.000Y-13.000
X-40.192Y-9.856
X-41.216Y-1.024
X-47.962Y-3.340
X-12.000Y2.000
X-30.604Y1.362
X-47.104Y17.408
X-23.680Y-8.064
X-24.448Y12.672
X-20.000Y-15.000
X-33.850Y17.408
X-33.792Y13.440
X-14.720Y3.340
X-38.000Y15.000
X-32.000Y12.032
X-50.688Y-0.896
X-48.436Y-2.895
X-48.000Y13.000
X-39.424Y17.920
X-61.056Y0.384
X-36.474Y1.928
X-28.000Y-19.000
X-21.000Y19.000
X-9.000Y11.000
X-65.024Y-15.360
X-45.056Y17.280
X-29.184Y-1.152
X-61.056Y-15.488
X-47.991Y-2.300
X-39.424Y12.416
X-30.000Y15.000
X-65.024Y0.384
X-56.960Y14.080
X-34.944Y0.256
X-21.760Y0.000
X-6.000Y19.000
X-32.000Y12.672
X-35.072Y-3.968
X-55.808Y8.340
X-42.240Y1.664
X-23.040Y15.104
X-21.760Y2.750
X-59.264Y7.000
X-61.070Y-1.550
X-54.528Y-11.392
X-31.104Y1.920
T2
X-61.570Y10.140
X-61.570Y4.360
X-61.570Y-5.610
X-61.570Y-11.390
T1
X-54.230Y-18.000
X-61.850Y-18.000
X-59.310Y-18.000
X-51.690Y-18.000
X-56.770Y-18.000
X-49.150Y-18.000
X-53.730Y18.000
X-61.350Y18.000
X-58.810Y18.000
X-51.190Y18.000
X-56.270Y18.000
X-48.650Y18.000
X-10.730Y-17.780
X-10.730Y-12.700
X-10.730Y-7.620
X-10.730Y15.240
X-13.270Y-15.240
X-13.270Y10.160
X-13.270Y-7.620
X-10.730Y-2.540
X-10.730Y7.620
X-10.730Y-5.080
X-10.730Y5.080
X-10.730Y-15.240
X-13.270Y-2.540
X-13.270Y17.780
X-10.730Y17.780
X-13.270Y12.700
X-10.730Y2.540
X-13.270Y7.620
X-13.270Y-5.080
X-10.730Y-10.160
X-13.270Y2.540
X-13.270Y-12.700
X-10.730Y10.160
X-13.270Y5.080
X-13.270Y-10.160
X-10.730Y0.000
X-13.270Y0.000
X-13.270Y-17.780
X-13.270Y15.240
X-10.730Y12.700
X-38.270Y-18.000
X-30.650Y-18.000
X-33.190Y-18.000
X-40.810Y-18.000
X-35.730Y-18.000
X-43.350Y-18.000
M30
