%FSLAX46Y46*%
%MOMM*%
G01*
%LPD*%
G36*
X-52727071Y-6586087D02*
X-52666346Y-7411072D01*
X-52496318Y-8664598D01*
X-52052163Y-9857400D01*
X-51383326Y-10943500D01*
X-50538389Y-11876055D01*
X-48308934Y-12270764D01*
X-47215026Y-12520601D01*
X-46139336Y-12861526D01*
X-45104417Y-12853718D01*
X-44037402Y-12728800D01*
X-43568089Y-12751354D01*
X-43182922Y-12897960D01*
X-42912264Y-13220668D01*
X-42787346Y-13770658D01*
X-41742017Y-14421277D01*
X-40561360Y-14939170D01*
X-39946308Y-15092716D01*
X-39330389Y-15145633D01*
X-38724012Y-15076234D01*
X-38136720Y-14861963D01*
X-36041726Y-13644871D01*
X-35044110Y-12969095D01*
X-34143653Y-12151917D01*
X-33196351Y-11377247D01*
X-32371366Y-10482862D01*
X-30869737Y-8551824D01*
X-30515800Y-8072101D01*
X-30253817Y-7523846D01*
X-29840024Y-6339719D01*
X-29309118Y-5233666D01*
X-28897927Y-4784305D01*
X-28337527Y-4443381D01*
X-26989444Y-3895126D01*
X-25719435Y-3124793D01*
X-25176385Y-2640732D01*
X-24728759Y-2082935D01*
X-24400847Y-1445328D01*
X-24218674Y-720104D01*
X-24242964Y-71220D01*
X-24428607Y498722D01*
X-24746109Y996663D01*
X-25165975Y1430409D01*
X-26195689Y2134813D01*
X-27283524Y2670056D01*
X-28269863Y2808854D01*
X-29094848Y3208767D01*
X-29689947Y3877604D01*
X-29879061Y4315687D01*
X-29985762Y4825773D01*
X-30861062Y5663770D01*
X-31867353Y6351692D01*
X-32963863Y6897344D01*
X-34106351Y7309403D01*
X-35509086Y7751824D01*
X-36945653Y8123978D01*
X-38327568Y8610642D01*
X-38970380Y8955036D01*
X-39565479Y9396590D01*
X-40216099Y10303119D01*
X-40936985Y11150659D01*
X-41804477Y11807350D01*
X-42316297Y12022489D01*
X-42893180Y12138733D01*
X-45065380Y12700000D01*
X-46159288Y12934223D01*
X-47278353Y13041792D01*
X-48175340Y13348017D01*
X-49126979Y13310715D01*
X-49511278Y13136349D01*
X-49772393Y12845739D01*
X-49865215Y12426740D01*
X-49744633Y11868942D01*
X-49617980Y11333700D01*
X-49635329Y10769830D01*
X-49875625Y9601318D01*
X-49980591Y9019230D01*
X-49997941Y8454493D01*
X-49869552Y7916648D01*
X-49537303Y7417840D01*
X-49056712Y7096000D01*
X-48531012Y6882597D01*
X-47409344Y6623217D01*
X-46299822Y6335209D01*
X-45789736Y6085372D01*
X-45330833Y5714085D01*
X-44478955Y4975849D01*
X-43540329Y4388557D01*
X-42515820Y3985173D01*
X-41404563Y3796927D01*
X-40987299Y3625164D01*
X-40894477Y3418700D01*
X-41049759Y3187081D01*
X-41377671Y2941581D01*
X-42248633Y2447978D01*
X-42900987Y2015099D01*
X-44426906Y1302888D01*
X-45192034Y969771D01*
X-45946752Y779790D01*
X-45822701Y1374022D01*
X-45873883Y1943965D01*
X-46076009Y2472267D01*
X-46404788Y2941581D01*
X-46835064Y3334554D01*
X-47342547Y3633838D01*
X-47903815Y3822084D01*
X-48492842Y3880206D01*
X-49196378Y3798662D01*
X-49731621Y3495040D01*
X-50126330Y3017920D01*
X-50409133Y2416748D01*
X-50752659Y1033098D01*
X-50985147Y-267273D01*
X-51238455Y-1707310D01*
X-51428436Y-3166432D01*
X-51731191Y-4590855D01*
X-51979294Y-5272704D01*
X-52321085Y-5925058D01*
X-52614297Y-6229548D01*
X-52727071Y-6586087D01*
D02*
G37*
G01*
%LPD*%
G75*
M02*
