%FSLAX46Y46*%
%MOMM*%
%ADD13C,0.000000*%
%ADD14C,0.100000*%
%ADD12C,0.125000*%
%ADD10C,0.150000*%
%ADD11C,0.200000*%
G01*
%LPD*%
G36*
X-55043062Y10415345D02*
X-54977592Y10459488D01*
X-54991104Y10240989D01*
X-55123247Y10217857D01*
X-55273934Y10248298D01*
X-55397060Y10331300D01*
X-55480061Y10454393D01*
X-55510502Y10605112D01*
X-55329184Y10605112D01*
X-55312983Y10524959D01*
X-55268871Y10459488D01*
X-55203401Y10415345D01*
X-55123247Y10399175D01*
X-55043062Y10415345D01*
D02*
G37*
%LPD*%
G36*
X-52397592Y10312155D02*
X-52397624Y10434933D01*
X-52397624Y10488790D01*
X-52849115Y10488790D01*
X-52849115Y10475436D01*
X-52849115Y10352659D01*
X-52748646Y10343641D01*
X-52498092Y10321174D01*
X-52498092Y10143115D01*
X-52397592Y10042647D01*
X-52397592Y10312155D01*
D02*
G37*
%LPD*%
G36*
X-51214152Y13726376D02*
X-53620808Y11436295D01*
X-51183046Y9033975D01*
X-51357529Y9033975D01*
X-53709568Y11351838D01*
X-55869594Y9296427D01*
X-55953987Y9385187D01*
X-53796873Y11437846D01*
X-55970790Y13580214D01*
X-55886397Y13668943D01*
X-53708081Y11522303D01*
X-51391831Y13726376D01*
X-51214152Y13726376D01*
D02*
G37*
%LPD*%
G36*
X-51716146Y11975281D02*
X-51666055Y11608911D01*
X-51726146Y11508443D01*
X-51804369Y11508443D01*
X-51904837Y11608911D01*
X-51788579Y11608911D01*
X-51841677Y11975281D01*
X-51916640Y12204507D01*
X-51973631Y12290040D01*
X-52047297Y12346113D01*
X-52170106Y12445252D01*
X-52170106Y12627836D01*
X-52047297Y12627836D01*
X-52047297Y12473162D01*
X-51960688Y12437500D01*
X-51887212Y12374623D01*
X-51781396Y12204507D01*
X-51692034Y12204507D01*
X-51692034Y11975281D01*
X-51716146Y11975281D01*
D02*
G37*
%LPD*%
G36*
X-55315609Y11890666D02*
X-55192832Y12066415D01*
X-55192832Y10986165D01*
X-55123247Y10992398D01*
X-54981262Y10965565D01*
X-54862884Y10891835D01*
X-54778363Y10781525D01*
X-54737955Y10644856D01*
X-54744758Y10522680D01*
X-54793742Y10401549D01*
X-54878579Y10304909D01*
X-54991104Y10240989D01*
X-54977592Y10459488D01*
X-54933449Y10524959D01*
X-54917247Y10605112D01*
X-54933449Y10685297D01*
X-54977592Y10750768D01*
X-55043062Y10794911D01*
X-55123247Y10811081D01*
X-55203401Y10794911D01*
X-55268871Y10750768D01*
X-55312983Y10685297D01*
X-55329184Y10605112D01*
X-55510502Y10605112D01*
X-55496421Y10708935D01*
X-55456739Y10802094D01*
X-55395193Y10880823D01*
X-55315609Y10941294D01*
X-55315609Y11890666D01*
D02*
G37*
%LPD*%
G36*
X-51625677Y11608911D02*
X-51666055Y11608911D01*
X-51726146Y11508443D01*
X-51726146Y11074893D01*
X-51681212Y10974425D01*
X-51625677Y10974425D01*
X-51625677Y11608911D01*
D02*
G37*
%LPD*%
G36*
X-51841677Y11975281D02*
X-51916640Y12204507D01*
X-52047297Y12204507D01*
X-52047297Y12346113D01*
X-52170106Y12445252D01*
X-52170106Y12322095D01*
X-52170106Y10414491D01*
X-52397624Y10434933D01*
X-52397592Y10312155D01*
X-52180232Y10292631D01*
X-52199851Y10211117D01*
X-52185770Y10141375D01*
X-52147386Y10084448D01*
X-52090459Y10046064D01*
X-52020748Y10031983D01*
X-51951037Y10046064D01*
X-51894110Y10084448D01*
X-51855727Y10141375D01*
X-51841645Y10211117D01*
X-51861676Y10293486D01*
X-51915153Y10355760D01*
X-51812406Y10478031D01*
X-51742632Y10622579D01*
X-51698616Y10795227D01*
X-51681212Y10974425D01*
X-51726146Y11074893D01*
X-51804369Y11074893D01*
X-51804053Y10974425D01*
X-51819558Y10814719D01*
X-51857752Y10663843D01*
X-51931798Y10520022D01*
X-52047297Y10407909D01*
X-52047297Y11975281D01*
X-51841677Y11975281D01*
D02*
G37*
%LPD*%
G36*
X-55216944Y10511415D02*
X-55255771Y10605112D01*
X-55216944Y10698841D01*
X-55123247Y10737667D01*
X-55029519Y10698841D01*
X-54990692Y10605112D01*
X-55029519Y10511415D01*
X-55123247Y10472589D01*
X-55216944Y10511415D01*
D02*
G37*
%LPD*%
G36*
X-55770114Y5996947D02*
X-55357594Y7028636D01*
X-55341218Y7190057D01*
X-55294430Y7344459D01*
X-55218788Y7486385D01*
X-55115853Y7611934D01*
X-54989524Y7715649D01*
X-54847598Y7791291D01*
X-54693976Y7838079D01*
X-54531775Y7853675D01*
X-54370354Y7838079D01*
X-54215952Y7791291D01*
X-54074026Y7715649D01*
X-53948477Y7611934D01*
X-53845542Y7486385D01*
X-53769900Y7344459D01*
X-53723112Y7190057D01*
X-53706736Y7028636D01*
X-53294216Y8060325D01*
X-52055877Y8060325D01*
X-52055877Y5996947D01*
X-51643357Y5996947D01*
X-51643357Y8060325D01*
X-51674550Y8217847D01*
X-51764228Y8351974D01*
X-51898355Y8441653D01*
X-52055877Y8472845D01*
X-55357594Y8472845D01*
X-55515116Y8441653D01*
X-55649243Y8351974D01*
X-55738922Y8217847D01*
X-55770114Y8060325D01*
X-55770114Y5996947D01*
D02*
G37*
%LPD*%
G36*
X-54150448Y7186938D02*
X-54240126Y7320285D01*
X-54374253Y7409963D01*
X-54531775Y7441156D01*
X-54690077Y7409963D01*
X-54823424Y7320285D01*
X-54913102Y7186938D01*
X-54944295Y7028636D01*
X-54913102Y6870335D01*
X-54823424Y6736987D01*
X-54690077Y6647309D01*
X-54531775Y6616116D01*
X-54374253Y6647309D01*
X-54240126Y6736987D01*
X-54150448Y6870335D01*
X-54119255Y7028636D01*
X-54150448Y7186938D01*
D02*
G37*
%LPD*%
G36*
X-54737955Y10644856D02*
X-52849115Y10475436D01*
X-52849115Y10352659D01*
X-54744758Y10522680D01*
X-54737955Y10644856D01*
D02*
G37*
%LPD*%
G36*
X-52170106Y12322095D02*
X-52170106Y12445252D01*
X-55257669Y12184097D01*
X-55294376Y12168402D01*
X-55314185Y12134480D01*
X-55504268Y12134480D01*
X-55504268Y11890666D01*
X-55315609Y11890666D01*
X-55192832Y12066415D01*
X-52170106Y12322095D01*
D02*
G37*
%LPD*%
G36*
X-51804369Y11508443D02*
X-51904837Y11608911D01*
X-51904837Y10974425D01*
X-51804053Y10974425D01*
X-51804369Y11074893D01*
X-51804369Y11508443D01*
D02*
G37*
%LPD*%
G36*
X-52849115Y10352659D02*
X-52748646Y10343641D01*
X-52748646Y10143115D01*
X-52498092Y10143115D01*
X-52397592Y10042647D01*
X-52849115Y10042647D01*
X-52849115Y10352659D01*
D02*
G37*
%LPD*%
G36*
X-55770114Y5996947D02*
X-55357594Y7028636D01*
X-55341218Y6867215D01*
X-55294430Y6712813D01*
X-55218788Y6570887D01*
X-55115853Y6445338D01*
X-54989524Y6341623D01*
X-54847598Y6265981D01*
X-54693976Y6219193D01*
X-54531775Y6203597D01*
X-54370354Y6219193D01*
X-54215952Y6265981D01*
X-54074026Y6341623D01*
X-53948477Y6445338D01*
X-53845542Y6570887D01*
X-53769900Y6712813D01*
X-53723112Y6867215D01*
X-53706736Y7028636D01*
X-53294216Y8060325D01*
X-53294216Y5996947D01*
X-52055877Y5996947D01*
X-51643357Y5996947D01*
X-51674550Y5839425D01*
X-51764228Y5705298D01*
X-51898355Y5615620D01*
X-52055877Y5584427D01*
X-55357594Y5584427D01*
X-55515116Y5615620D01*
X-55649243Y5705298D01*
X-55738922Y5839425D01*
X-55770114Y5996947D01*
D02*
G37*
%LPD*%
G36*
X-52859779Y10811081D02*
X-52859779Y11631378D01*
X-53117706Y11631378D01*
X-53117706Y10811081D01*
X-52859779Y10811081D01*
D02*
G37*
G01*
%LPD*%
D10*
X-8430095Y18372572D02*
X-7668190Y18372572D01*
D10*
X-8572952Y18420190D02*
X-8430095Y18372572D01*
D10*
X-8620571Y18467810D02*
X-8572952Y18420190D01*
D10*
X-8668190Y18563048D02*
X-8620571Y18467810D01*
D10*
X-8668190Y18658286D02*
X-8668190Y18563048D01*
D10*
X-8620571Y18753524D02*
X-8668190Y18658286D01*
D10*
X-8572952Y18801142D02*
X-8620571Y18753524D01*
D10*
X-8430095Y18848762D02*
X-8572952Y18801142D01*
D10*
X-8334857Y18848762D02*
X-8430095Y18848762D01*
D10*
X-7668190Y17420190D02*
X-7668190Y17944000D01*
D10*
X-8049143Y17705904D02*
X-7668190Y17420190D01*
D10*
X-8049143Y17563048D02*
X-8049143Y17705904D01*
D10*
X-8096762Y17467810D02*
X-8049143Y17563048D01*
D10*
X-8144381Y17420190D02*
X-8096762Y17467810D01*
D10*
X-8287238Y17372572D02*
X-8144381Y17420190D01*
D10*
X-8382476Y17372572D02*
X-8287238Y17372572D01*
D10*
X-8525333Y17420190D02*
X-8382476Y17372572D01*
D10*
X-8620571Y17515428D02*
X-8525333Y17420190D01*
D10*
X-8668190Y17658286D02*
X-8620571Y17515428D01*
D10*
X-8668190Y17801142D02*
X-8668190Y17658286D01*
D10*
X-8620571Y17944000D02*
X-8668190Y17801142D01*
D10*
X-8572952Y17991620D02*
X-8620571Y17944000D01*
D10*
X-8477714Y18039238D02*
X-8572952Y17991620D01*
D10*
X-7715809Y16944000D02*
X-7668190Y16801144D01*
D10*
X-7858666Y17039238D02*
X-7715809Y16944000D01*
D10*
X-8096762Y17086858D02*
X-7858666Y17039238D01*
D10*
X-8239619Y17086858D02*
X-8096762Y17086858D01*
D10*
X-8477714Y17039238D02*
X-8239619Y17086858D01*
D10*
X-8620571Y16944000D02*
X-8477714Y17039238D01*
D10*
X-8668190Y16801144D02*
X-8620571Y16944000D01*
D10*
X-8668190Y16705905D02*
X-8668190Y16801144D01*
D10*
X-8620571Y16563048D02*
X-8668190Y16705905D01*
D10*
X-8477714Y16467810D02*
X-8620571Y16563048D01*
D10*
X-8239619Y16420190D02*
X-8477714Y16467810D01*
D10*
X-8096762Y16420190D02*
X-8239619Y16420190D01*
D10*
X-7858666Y16467810D02*
X-8096762Y16420190D01*
D10*
X-7715809Y16563048D02*
X-7858666Y16467810D01*
D10*
X-7668190Y16705905D02*
X-7715809Y16563048D01*
D10*
X-7668190Y16801144D02*
X-7668190Y16705905D01*
D10*
X-7858666Y16086857D02*
X-7906285Y16086857D01*
D10*
X-7763428Y16039238D02*
X-7858666Y16086857D01*
D10*
X-7715809Y15991619D02*
X-7763428Y16039238D01*
D10*
X-7668190Y15896381D02*
X-7715809Y15991619D01*
D10*
X-7668190Y15705905D02*
X-7668190Y15896381D01*
D10*
X-7715809Y15610667D02*
X-7668190Y15705905D01*
D10*
X-7763428Y15563048D02*
X-7715809Y15610667D01*
D10*
X-7858666Y15515428D02*
X-7763428Y15563048D01*
D10*
X-7953905Y15515428D02*
X-7858666Y15515428D01*
D10*
X-8049143Y15563048D02*
X-7953905Y15515428D01*
D10*
X-8192000Y15658286D02*
X-8049143Y15563048D01*
D10*
X-8668190Y16134476D02*
X-8192000Y15658286D01*
D10*
X-8668190Y15467810D02*
X-8668190Y16134476D01*
D10*
X-45761524Y9763810D02*
X-45761524Y10763810D01*
D10*
X-45332952Y10763810D02*
X-45761524Y10763810D01*
D10*
X-45190096Y10716190D02*
X-45332952Y10763810D01*
D10*
X-45142476Y10668571D02*
X-45190096Y10716190D01*
D10*
X-45094856Y10573333D02*
X-45142476Y10668571D01*
D10*
X-45094856Y10478095D02*
X-45094856Y10573333D01*
D10*
X-45142476Y10382857D02*
X-45094856Y10478095D01*
D10*
X-45190096Y10335238D02*
X-45142476Y10382857D01*
D10*
X-45332952Y10287619D02*
X-45190096Y10335238D01*
D10*
X-45332952Y10287619D02*
X-45761524Y10287619D01*
D10*
X-45190096Y10240000D02*
X-45332952Y10287619D01*
D10*
X-45142476Y10192381D02*
X-45190096Y10240000D01*
D10*
X-45094856Y10097143D02*
X-45142476Y10192381D01*
D10*
X-45094856Y9954286D02*
X-45094856Y10097143D01*
D10*
X-45142476Y9859048D02*
X-45094856Y9954286D01*
D10*
X-45190096Y9811429D02*
X-45142476Y9859048D01*
D10*
X-45332952Y9763810D02*
X-45190096Y9811429D01*
D10*
X-45761524Y9763810D02*
X-45332952Y9763810D01*
D10*
X-44618668Y10716190D02*
X-44523428Y10763810D01*
D10*
X-44713904Y10620952D02*
X-44618668Y10716190D01*
D10*
X-44761524Y10525714D02*
X-44713904Y10620952D01*
D10*
X-44809144Y10382857D02*
X-44761524Y10525714D01*
D10*
X-44809144Y10144762D02*
X-44809144Y10382857D01*
D10*
X-44761524Y10001905D02*
X-44809144Y10144762D01*
D10*
X-44713904Y9906667D02*
X-44761524Y10001905D01*
D10*
X-44618668Y9811429D02*
X-44713904Y9906667D01*
D10*
X-44523428Y9763810D02*
X-44618668Y9811429D01*
D10*
X-44332952Y9763810D02*
X-44523428Y9763810D01*
D10*
X-44237716Y9811429D02*
X-44332952Y9763810D01*
D10*
X-44142476Y9906667D02*
X-44237716Y9811429D01*
D10*
X-44094856Y10001905D02*
X-44142476Y9906667D01*
D10*
X-44047240Y10144762D02*
X-44094856Y10001905D01*
D10*
X-44047240Y10382857D02*
X-44047240Y10144762D01*
D10*
X-44094856Y10525714D02*
X-44047240Y10382857D01*
D10*
X-44142476Y10620952D02*
X-44094856Y10525714D01*
D10*
X-44237716Y10716190D02*
X-44142476Y10620952D01*
D10*
X-44332952Y10763810D02*
X-44237716Y10716190D01*
D10*
X-44523428Y10763810D02*
X-44332952Y10763810D01*
D10*
X-43571048Y10716190D02*
X-43475808Y10763810D01*
D10*
X-43666284Y10620952D02*
X-43571048Y10716190D01*
D10*
X-43713904Y10525714D02*
X-43666284Y10620952D01*
D10*
X-43761524Y10382857D02*
X-43713904Y10525714D01*
D10*
X-43761524Y10144762D02*
X-43761524Y10382857D01*
D10*
X-43713904Y10001905D02*
X-43761524Y10144762D01*
D10*
X-43666284Y9906667D02*
X-43713904Y10001905D01*
D10*
X-43571048Y9811429D02*
X-43666284Y9906667D01*
D10*
X-43475808Y9763810D02*
X-43571048Y9811429D01*
D10*
X-43285332Y9763810D02*
X-43475808Y9763810D01*
D10*
X-43190096Y9811429D02*
X-43285332Y9763810D01*
D10*
X-43094856Y9906667D02*
X-43190096Y9811429D01*
D10*
X-43047240Y10001905D02*
X-43094856Y9906667D01*
D10*
X-42999620Y10144762D02*
X-43047240Y10001905D01*
D10*
X-42999620Y10382857D02*
X-42999620Y10144762D01*
D10*
X-43047240Y10525714D02*
X-42999620Y10382857D01*
D10*
X-43094856Y10620952D02*
X-43047240Y10525714D01*
D10*
X-43190096Y10716190D02*
X-43094856Y10620952D01*
D10*
X-43285332Y10763810D02*
X-43190096Y10716190D01*
D10*
X-43475808Y10763810D02*
X-43285332Y10763810D01*
D10*
X-42475808Y9763810D02*
X-42475808Y10763810D01*
D10*
X-42142476Y10763810D02*
X-42809144Y10763810D01*
D10*
X-50116572Y15377905D02*
X-50116572Y16139810D01*
D10*
X-50164192Y15235048D02*
X-50116572Y15377905D01*
D10*
X-50211808Y15187429D02*
X-50164192Y15235048D01*
D10*
X-50307048Y15139810D02*
X-50211808Y15187429D01*
D10*
X-50402284Y15139810D02*
X-50307048Y15139810D01*
D10*
X-50497524Y15187429D02*
X-50402284Y15139810D01*
D10*
X-50545144Y15235048D02*
X-50497524Y15187429D01*
D10*
X-50592760Y15377905D02*
X-50545144Y15235048D01*
D10*
X-50592760Y15473143D02*
X-50592760Y15377905D01*
D10*
X-49545144Y15996952D02*
X-49640380Y15949333D01*
D10*
X-49402284Y16139810D02*
X-49545144Y15996952D01*
D10*
X-49402284Y15139810D02*
X-49402284Y16139810D01*
D10*
X-48688000Y16092190D02*
X-48545144Y16139810D01*
D10*
X-48783240Y15949333D02*
X-48688000Y16092190D01*
D10*
X-48830856Y15711238D02*
X-48783240Y15949333D01*
D10*
X-48830856Y15568381D02*
X-48830856Y15711238D01*
D10*
X-48783240Y15330286D02*
X-48830856Y15568381D01*
D10*
X-48688000Y15187429D02*
X-48783240Y15330286D01*
D10*
X-48545144Y15139810D02*
X-48688000Y15187429D01*
D10*
X-48449904Y15139810D02*
X-48545144Y15139810D01*
D10*
X-48307048Y15187429D02*
X-48449904Y15139810D01*
D10*
X-48211808Y15330286D02*
X-48307048Y15187429D01*
D10*
X-48164192Y15568381D02*
X-48211808Y15330286D01*
D10*
X-48164192Y15711238D02*
X-48164192Y15568381D01*
D10*
X-48211808Y15949333D02*
X-48164192Y15711238D01*
D10*
X-48307048Y16092190D02*
X-48211808Y15949333D01*
D10*
X-48449904Y16139810D02*
X-48307048Y16092190D01*
D10*
X-48545144Y16139810D02*
X-48449904Y16139810D01*
D10*
X-47640380Y15996952D02*
X-47735620Y15949333D01*
D10*
X-47497524Y16139810D02*
X-47640380Y15996952D01*
D10*
X-47497524Y15139810D02*
X-47497524Y16139810D01*
D10*
X-38209524Y9763810D02*
X-38209524Y10763810D01*
D10*
X-37780952Y10763810D02*
X-38209524Y10763810D01*
D10*
X-37638096Y10716190D02*
X-37780952Y10763810D01*
D10*
X-37590476Y10668571D02*
X-37638096Y10716190D01*
D10*
X-37542856Y10573333D02*
X-37590476Y10668571D01*
D10*
X-37542856Y10478095D02*
X-37542856Y10573333D01*
D10*
X-37590476Y10382857D02*
X-37542856Y10478095D01*
D10*
X-37638096Y10335238D02*
X-37590476Y10382857D01*
D10*
X-37780952Y10287619D02*
X-37638096Y10335238D01*
D10*
X-38209524Y10287619D02*
X-37780952Y10287619D01*
D10*
X-37542856Y9763810D02*
X-37876192Y10287619D01*
D10*
X-36685716Y10716190D02*
X-36590476Y10620952D01*
D10*
X-36828572Y10763810D02*
X-36685716Y10716190D01*
D10*
X-37019048Y10763810D02*
X-36828572Y10763810D01*
D10*
X-37161904Y10716190D02*
X-37019048Y10763810D01*
D10*
X-37257144Y10620952D02*
X-37161904Y10716190D01*
D10*
X-37257144Y10525714D02*
X-37257144Y10620952D01*
D10*
X-37209524Y10430476D02*
X-37257144Y10525714D01*
D10*
X-37161904Y10382857D02*
X-37209524Y10430476D01*
D10*
X-37066668Y10335238D02*
X-37161904Y10382857D01*
D10*
X-36780952Y10240000D02*
X-37066668Y10335238D01*
D10*
X-36685716Y10192381D02*
X-36780952Y10240000D01*
D10*
X-36638096Y10144762D02*
X-36685716Y10192381D01*
D10*
X-36590476Y10049524D02*
X-36638096Y10144762D01*
D10*
X-36590476Y9906667D02*
X-36590476Y10049524D01*
D10*
X-36685716Y9811429D02*
X-36590476Y9906667D01*
D10*
X-36828572Y9763810D02*
X-36685716Y9811429D01*
D10*
X-37019048Y9763810D02*
X-36828572Y9763810D01*
D10*
X-37161904Y9811429D02*
X-37019048Y9763810D01*
D10*
X-37257144Y9906667D02*
X-37161904Y9811429D01*
D10*
X-36066668Y9763810D02*
X-36066668Y10763810D01*
D10*
X-35733332Y10763810D02*
X-36400000Y10763810D01*
D10*
X-58844192Y-6462476D02*
X-57844192Y-6462476D01*
D10*
X-57844192Y-6795809D02*
X-57844192Y-6462476D01*
D10*
X-57891808Y-6938666D02*
X-57844192Y-6795809D01*
D10*
X-57987048Y-7033905D02*
X-57891808Y-6938666D01*
D10*
X-58082284Y-7081524D02*
X-57987048Y-7033905D01*
D10*
X-58225144Y-7129143D02*
X-58082284Y-7081524D01*
D10*
X-58463240Y-7129143D02*
X-58225144Y-7129143D01*
D10*
X-58606096Y-7081524D02*
X-58463240Y-7129143D01*
D10*
X-58701332Y-7033905D02*
X-58606096Y-7081524D01*
D10*
X-58796572Y-6938666D02*
X-58701332Y-7033905D01*
D10*
X-58844192Y-6795809D02*
X-58796572Y-6938666D01*
D10*
X-58844192Y-6462476D02*
X-58844192Y-6795809D01*
D10*
X-58844192Y-7462476D02*
X-57844192Y-7462476D01*
D10*
X-58844192Y-7843428D02*
X-57844192Y-7843428D01*
D10*
X-57844192Y-8272000D02*
X-57844192Y-7843428D01*
D10*
X-57891808Y-8414857D02*
X-57844192Y-8272000D01*
D10*
X-57939428Y-8462476D02*
X-57891808Y-8414857D01*
D10*
X-58034668Y-8510095D02*
X-57939428Y-8462476D01*
D10*
X-58129904Y-8510095D02*
X-58034668Y-8510095D01*
D10*
X-58225144Y-8462476D02*
X-58129904Y-8510095D01*
D10*
X-58272760Y-8414857D02*
X-58225144Y-8462476D01*
D10*
X-58320380Y-8272000D02*
X-58272760Y-8414857D01*
D10*
X-58320380Y-7843428D02*
X-58320380Y-8272000D01*
D10*
X-58844192Y-8510095D02*
X-58320380Y-8176762D01*
D10*
X-58844192Y-8843428D02*
X-57844192Y-8843428D01*
D10*
X-57844192Y-9462476D02*
X-57844192Y-8843428D01*
D10*
X-58320380Y-9224381D02*
X-58320380Y-8843428D01*
D10*
X-58844192Y-9462476D02*
X-58844192Y-8843428D01*
D10*
X-57987048Y-10367238D02*
X-58082284Y-10414857D01*
D10*
X-57891808Y-10272000D02*
X-57987048Y-10367238D01*
D10*
X-57844192Y-10176762D02*
X-57891808Y-10272000D01*
D10*
X-57844192Y-9986286D02*
X-57844192Y-10176762D01*
D10*
X-57891808Y-9891048D02*
X-57844192Y-9986286D01*
D10*
X-57987048Y-9795810D02*
X-57891808Y-9891048D01*
D10*
X-58082284Y-9748190D02*
X-57987048Y-9795810D01*
D10*
X-58225144Y-9700572D02*
X-58082284Y-9748190D01*
D10*
X-58463240Y-9700572D02*
X-58225144Y-9700572D01*
D10*
X-58606096Y-9748190D02*
X-58463240Y-9700572D01*
D10*
X-58701332Y-9795810D02*
X-58606096Y-9748190D01*
D10*
X-58796572Y-9891048D02*
X-58701332Y-9795810D01*
D10*
X-58844192Y-9986286D02*
X-58796572Y-9891048D01*
D10*
X-58844192Y-10176762D02*
X-58844192Y-9986286D01*
D10*
X-58796572Y-10272000D02*
X-58844192Y-10176762D01*
D10*
X-58701332Y-10367238D02*
X-58796572Y-10272000D01*
D10*
X-58606096Y-10414857D02*
X-58701332Y-10367238D01*
D10*
X-58844192Y-10938666D02*
X-57844192Y-10938666D01*
D10*
X-57844192Y-11272000D02*
X-57844192Y-10605334D01*
D10*
X-50756572Y-15982095D02*
X-50756572Y-15220190D01*
D10*
X-50804192Y-16124952D02*
X-50756572Y-15982095D01*
D10*
X-50851808Y-16172571D02*
X-50804192Y-16124952D01*
D10*
X-50947048Y-16220190D02*
X-50851808Y-16172571D01*
D10*
X-51042284Y-16220190D02*
X-50947048Y-16220190D01*
D10*
X-51137524Y-16172571D02*
X-51042284Y-16220190D01*
D10*
X-51185144Y-16124952D02*
X-51137524Y-16172571D01*
D10*
X-51232760Y-15982095D02*
X-51185144Y-16124952D01*
D10*
X-51232760Y-15886857D02*
X-51232760Y-15982095D01*
D10*
X-50185144Y-15363048D02*
X-50280380Y-15410667D01*
D10*
X-50042284Y-15220190D02*
X-50185144Y-15363048D01*
D10*
X-50042284Y-16220190D02*
X-50042284Y-15220190D01*
D10*
X-49328000Y-15267810D02*
X-49185144Y-15220190D01*
D10*
X-49423240Y-15410667D02*
X-49328000Y-15267810D01*
D10*
X-49470856Y-15648762D02*
X-49423240Y-15410667D01*
D10*
X-49470856Y-15791619D02*
X-49470856Y-15648762D01*
D10*
X-49423240Y-16029714D02*
X-49470856Y-15791619D01*
D10*
X-49328000Y-16172571D02*
X-49423240Y-16029714D01*
D10*
X-49185144Y-16220190D02*
X-49328000Y-16172571D01*
D10*
X-49089904Y-16220190D02*
X-49185144Y-16220190D01*
D10*
X-48947048Y-16172571D02*
X-49089904Y-16220190D01*
D10*
X-48851808Y-16029714D02*
X-48947048Y-16172571D01*
D10*
X-48804192Y-15791619D02*
X-48851808Y-16029714D01*
D10*
X-48804192Y-15648762D02*
X-48804192Y-15791619D01*
D10*
X-48851808Y-15410667D02*
X-48804192Y-15648762D01*
D10*
X-48947048Y-15267810D02*
X-48851808Y-15410667D01*
D10*
X-49089904Y-15220190D02*
X-48947048Y-15267810D01*
D10*
X-49185144Y-15220190D02*
X-49089904Y-15220190D01*
D10*
X-47899428Y-15220190D02*
X-48423240Y-15220190D01*
D10*
X-48185144Y-15601143D02*
X-47899428Y-15220190D01*
D10*
X-48042284Y-15601143D02*
X-48185144Y-15601143D01*
D10*
X-47947048Y-15648762D02*
X-48042284Y-15601143D01*
D10*
X-47899428Y-15696381D02*
X-47947048Y-15648762D01*
D10*
X-47851808Y-15839238D02*
X-47899428Y-15696381D01*
D10*
X-47851808Y-15934476D02*
X-47851808Y-15839238D01*
D10*
X-47899428Y-16077333D02*
X-47851808Y-15934476D01*
D10*
X-47994668Y-16172571D02*
X-47899428Y-16077333D01*
D10*
X-48137524Y-16220190D02*
X-47994668Y-16172571D01*
D10*
X-48280380Y-16220190D02*
X-48137524Y-16220190D01*
D10*
X-48423240Y-16172571D02*
X-48280380Y-16220190D01*
D10*
X-48470856Y-16124952D02*
X-48423240Y-16172571D01*
D10*
X-48518476Y-16029714D02*
X-48470856Y-16124952D01*
D10*
X-58590476Y11007524D02*
X-57876192Y11007524D01*
D10*
X-58733332Y10959905D02*
X-58590476Y11007524D01*
D10*
X-58828572Y10864667D02*
X-58733332Y10959905D01*
D10*
X-58876192Y10721810D02*
X-58828572Y10864667D01*
D10*
X-58876192Y10626571D02*
X-58876192Y10721810D01*
D10*
X-58828572Y10483714D02*
X-58876192Y10626571D01*
D10*
X-58733332Y10388476D02*
X-58828572Y10483714D01*
D10*
X-58590476Y10340857D02*
X-58733332Y10388476D01*
D10*
X-57876192Y10340857D02*
X-58590476Y10340857D01*
D10*
X-58876192Y10102762D02*
X-57876192Y9721810D01*
D10*
X-58876192Y9340857D02*
X-57876192Y9721810D01*
D10*
X-58542856Y9483714D02*
X-58542856Y9959905D01*
D10*
X-58876192Y9102762D02*
X-57876192Y9102762D01*
D10*
X-57876192Y8674190D02*
X-57876192Y9102762D01*
D10*
X-57923808Y8531334D02*
X-57876192Y8674190D01*
D10*
X-57971428Y8483714D02*
X-57923808Y8531334D01*
D10*
X-58066668Y8436095D02*
X-57971428Y8483714D01*
D10*
X-58161904Y8436095D02*
X-58066668Y8436095D01*
D10*
X-58257144Y8483714D02*
X-58161904Y8436095D01*
D10*
X-58304760Y8531334D02*
X-58257144Y8483714D01*
D10*
X-58352380Y8674190D02*
X-58304760Y8531334D01*
D10*
X-58352380Y9102762D02*
X-58352380Y8674190D01*
D10*
X-58876192Y8436095D02*
X-58352380Y8769428D01*
D10*
X-58876192Y7912286D02*
X-57876192Y7912286D01*
D10*
X-57876192Y7578952D02*
X-57876192Y8245619D01*
D10*
X-59209524Y7436095D02*
X-57685716Y6578952D01*
D10*
X-58638096Y5912286D02*
X-57876192Y5912286D01*
D10*
X-58780952Y5959905D02*
X-58638096Y5912286D01*
D10*
X-58828572Y6007524D02*
X-58780952Y5959905D01*
D10*
X-58876192Y6102762D02*
X-58828572Y6007524D01*
D10*
X-58876192Y6198000D02*
X-58876192Y6102762D01*
D10*
X-58828572Y6293238D02*
X-58876192Y6198000D01*
D10*
X-58780952Y6340857D02*
X-58828572Y6293238D01*
D10*
X-58638096Y6388476D02*
X-58780952Y6340857D01*
D10*
X-58542856Y6388476D02*
X-58638096Y6388476D01*
D10*
X-58876192Y5340857D02*
X-57876192Y5340857D01*
D10*
X-57876192Y5007524D02*
X-57876192Y5674190D01*
D10*
X-58876192Y4912286D02*
X-57876192Y4531333D01*
D10*
X-58876192Y4150381D02*
X-57876192Y4531333D01*
D10*
X-58542856Y4293238D02*
X-58542856Y4769428D01*
D10*
X-58019048Y3293238D02*
X-58114284Y3245619D01*
D10*
X-57923808Y3388476D02*
X-58019048Y3293238D01*
D10*
X-57876192Y3483714D02*
X-57923808Y3388476D01*
D10*
X-57876192Y3674190D02*
X-57876192Y3483714D01*
D10*
X-57923808Y3769428D02*
X-57876192Y3674190D01*
D10*
X-58019048Y3864667D02*
X-57923808Y3769428D01*
D10*
X-58114284Y3912286D02*
X-58019048Y3864667D01*
D10*
X-58257144Y3959905D02*
X-58114284Y3912286D01*
D10*
X-58495240Y3959905D02*
X-58257144Y3959905D01*
D10*
X-58638096Y3912286D02*
X-58495240Y3959905D01*
D10*
X-58733332Y3864667D02*
X-58638096Y3912286D01*
D10*
X-58828572Y3769428D02*
X-58733332Y3864667D01*
D10*
X-58876192Y3674190D02*
X-58828572Y3769428D01*
D10*
X-58876192Y3483714D02*
X-58876192Y3674190D01*
D10*
X-58828572Y3388476D02*
X-58876192Y3483714D01*
D10*
X-58733332Y3293238D02*
X-58828572Y3388476D01*
D10*
X-58638096Y3245619D02*
X-58733332Y3293238D01*
D10*
X-58495240Y3245619D02*
X-58638096Y3245619D01*
D10*
X-58495240Y3245619D02*
X-58495240Y3483714D01*
D10*
X-44213620Y-15944095D02*
X-44213620Y-15182190D01*
D10*
X-44261240Y-16086952D02*
X-44213620Y-15944095D01*
D10*
X-44308856Y-16134571D02*
X-44261240Y-16086952D01*
D10*
X-44404096Y-16182190D02*
X-44308856Y-16134571D01*
D10*
X-44499332Y-16182190D02*
X-44404096Y-16182190D01*
D10*
X-44594572Y-16134571D02*
X-44499332Y-16182190D01*
D10*
X-44642192Y-16086952D02*
X-44594572Y-16134571D01*
D10*
X-44689808Y-15944095D02*
X-44642192Y-16086952D01*
D10*
X-44689808Y-15848857D02*
X-44689808Y-15944095D01*
D10*
X-43642192Y-15325048D02*
X-43737428Y-15372667D01*
D10*
X-43499332Y-15182190D02*
X-43642192Y-15325048D01*
D10*
X-43499332Y-16182190D02*
X-43499332Y-15182190D01*
D10*
X-42785048Y-15229810D02*
X-42642192Y-15182190D01*
D10*
X-42880284Y-15372667D02*
X-42785048Y-15229810D01*
D10*
X-42927904Y-15610762D02*
X-42880284Y-15372667D01*
D10*
X-42927904Y-15753619D02*
X-42927904Y-15610762D01*
D10*
X-42880284Y-15991714D02*
X-42927904Y-15753619D01*
D10*
X-42785048Y-16134571D02*
X-42880284Y-15991714D01*
D10*
X-42642192Y-16182190D02*
X-42785048Y-16134571D01*
D10*
X-42546952Y-16182190D02*
X-42642192Y-16182190D01*
D10*
X-42404096Y-16134571D02*
X-42546952Y-16182190D01*
D10*
X-42308856Y-15991714D02*
X-42404096Y-16134571D01*
D10*
X-42261240Y-15753619D02*
X-42308856Y-15991714D01*
D10*
X-42261240Y-15610762D02*
X-42261240Y-15753619D01*
D10*
X-42308856Y-15372667D02*
X-42261240Y-15610762D01*
D10*
X-42404096Y-15229810D02*
X-42308856Y-15372667D01*
D10*
X-42546952Y-15182190D02*
X-42404096Y-15229810D01*
D10*
X-42642192Y-15182190D02*
X-42546952Y-15182190D01*
D10*
X-41975524Y-15848857D02*
X-41499332Y-15182190D01*
D10*
X-41261240Y-15848857D02*
X-41975524Y-15848857D01*
D10*
X-41499332Y-16182190D02*
X-41499332Y-15182190D01*
D11*
X-53016376Y3580677D02*
X-52016376Y3580677D01*
D11*
X-53016376Y2914011D02*
X-52016376Y2914011D01*
D11*
X-52492564Y2914011D02*
X-52492564Y3580677D01*
D11*
X-53016376Y2009249D02*
X-52349708Y2009249D01*
D11*
X-52397328Y2104487D02*
X-52492564Y2009249D01*
D11*
X-52349708Y2199725D02*
X-52397328Y2104487D01*
D11*
X-52349708Y2342582D02*
X-52349708Y2199725D01*
D11*
X-52397328Y2437820D02*
X-52349708Y2342582D01*
D11*
X-52492564Y2533058D02*
X-52397328Y2437820D01*
D11*
X-52635424Y2580678D02*
X-52492564Y2533058D01*
D11*
X-52730660Y2580678D02*
X-52635424Y2580678D01*
D11*
X-52873516Y2533058D02*
X-52730660Y2580678D01*
D11*
X-52968756Y2437820D02*
X-52873516Y2533058D01*
D11*
X-53016376Y2342582D02*
X-52968756Y2437820D01*
D11*
X-53016376Y2199725D02*
X-53016376Y2342582D01*
D11*
X-52968756Y2104487D02*
X-53016376Y2199725D01*
D11*
X-52873516Y2009249D02*
X-52968756Y2104487D01*
D11*
X-53016376Y1628297D02*
X-52349708Y1628297D01*
D11*
X-52492564Y1580677D02*
X-52635424Y1628297D01*
D11*
X-52397328Y1485439D02*
X-52492564Y1580677D01*
D11*
X-52349708Y1390201D02*
X-52397328Y1485439D01*
D11*
X-52349708Y1247344D02*
X-52349708Y1390201D01*
D11*
X-53016376Y485439D02*
X-52349708Y485439D01*
D11*
X-52397328Y580677D02*
X-52492564Y485439D01*
D11*
X-52349708Y675916D02*
X-52397328Y580677D01*
D11*
X-52349708Y818773D02*
X-52349708Y675916D01*
D11*
X-52397328Y914011D02*
X-52349708Y818773D01*
D11*
X-52492564Y1009249D02*
X-52397328Y914011D01*
D11*
X-52635424Y1056868D02*
X-52492564Y1009249D01*
D11*
X-52730660Y1056868D02*
X-52635424Y1056868D01*
D11*
X-52873516Y1009249D02*
X-52730660Y1056868D01*
D11*
X-52968756Y914011D02*
X-52873516Y1009249D01*
D11*
X-53016376Y818773D02*
X-52968756Y914011D01*
D11*
X-53016376Y675916D02*
X-53016376Y818773D01*
D11*
X-52968756Y580677D02*
X-53016376Y675916D01*
D11*
X-52873516Y485439D02*
X-52968756Y580677D01*
D11*
X-53016376Y104487D02*
X-52349708Y104487D01*
D11*
X-52397328Y-38369D02*
X-52540184Y104487D01*
D11*
X-52349708Y-133607D02*
X-52397328Y-38369D01*
D11*
X-52349708Y-276465D02*
X-52349708Y-133607D01*
D11*
X-52397328Y-371703D02*
X-52349708Y-276465D01*
D11*
X-52540184Y-419322D02*
X-52397328Y-371703D01*
D11*
X-53016376Y-419322D02*
X-52540184Y-419322D01*
D11*
X-52397328Y-562179D02*
X-52540184Y-419322D01*
D11*
X-52349708Y-657417D02*
X-52397328Y-562179D01*
D11*
X-52349708Y-800274D02*
X-52349708Y-657417D01*
D11*
X-52397328Y-895512D02*
X-52349708Y-800274D01*
D11*
X-52540184Y-943131D02*
X-52397328Y-895512D01*
D11*
X-53016376Y-943131D02*
X-52540184Y-943131D01*
D11*
X-53016376Y-1324084D02*
X-52016376Y-1324084D01*
D11*
X-52397328Y-1419322D02*
X-52492564Y-1324084D01*
D11*
X-52349708Y-1514560D02*
X-52397328Y-1419322D01*
D11*
X-52349708Y-1657417D02*
X-52349708Y-1514560D01*
D11*
X-52397328Y-1752655D02*
X-52349708Y-1657417D01*
D11*
X-52492564Y-1847893D02*
X-52397328Y-1752655D01*
D11*
X-52635424Y-1895512D02*
X-52492564Y-1847893D01*
D11*
X-52730660Y-1895512D02*
X-52635424Y-1895512D01*
D11*
X-52873516Y-1847893D02*
X-52730660Y-1895512D01*
D11*
X-52968756Y-1752655D02*
X-52873516Y-1847893D01*
D11*
X-53016376Y-1657417D02*
X-52968756Y-1752655D01*
D11*
X-53016376Y-1514560D02*
X-53016376Y-1657417D01*
D11*
X-52968756Y-1419322D02*
X-53016376Y-1514560D01*
D11*
X-52873516Y-1324084D02*
X-52968756Y-1419322D01*
D11*
X-52635424Y-2752655D02*
X-52635424Y-2181227D01*
D11*
X-52540184Y-2752655D02*
X-52635424Y-2752655D01*
D11*
X-52444944Y-2705036D02*
X-52540184Y-2752655D01*
D11*
X-52397328Y-2657417D02*
X-52444944Y-2705036D01*
D11*
X-52349708Y-2562179D02*
X-52397328Y-2657417D01*
D11*
X-52349708Y-2419322D02*
X-52349708Y-2562179D01*
D11*
X-52397328Y-2324084D02*
X-52349708Y-2419322D01*
D11*
X-52492564Y-2228846D02*
X-52397328Y-2324084D01*
D11*
X-52635424Y-2181227D02*
X-52492564Y-2228846D01*
D11*
X-52730660Y-2181227D02*
X-52635424Y-2181227D01*
D11*
X-52873516Y-2228846D02*
X-52730660Y-2181227D01*
D11*
X-52968756Y-2324084D02*
X-52873516Y-2228846D01*
D11*
X-53016376Y-2419322D02*
X-52968756Y-2324084D01*
D11*
X-53016376Y-2562179D02*
X-53016376Y-2419322D01*
D11*
X-52968756Y-2657417D02*
X-53016376Y-2562179D01*
D11*
X-52873516Y-2752655D02*
X-52968756Y-2657417D01*
D11*
X-52778280Y-3466941D02*
X-52016376Y-3466941D01*
D11*
X-52921136Y-3419322D02*
X-52778280Y-3466941D01*
D11*
X-52968756Y-3371703D02*
X-52921136Y-3419322D01*
D11*
X-53016376Y-3276465D02*
X-52968756Y-3371703D01*
D11*
X-53016376Y-3181227D02*
X-53016376Y-3276465D01*
D11*
X-52968756Y-3085989D02*
X-53016376Y-3181227D01*
D11*
X-52921136Y-3038369D02*
X-52968756Y-3085989D01*
D11*
X-52778280Y-2990750D02*
X-52921136Y-3038369D01*
D11*
X-52683040Y-2990750D02*
X-52778280Y-2990750D01*
D11*
X-53016376Y-4038369D02*
X-52016376Y-4038369D01*
D11*
X-52016376Y-4371703D02*
X-52016376Y-3705036D01*
D11*
X-53016376Y-4466941D02*
X-52016376Y-4847893D01*
D11*
X-53016376Y-5228846D02*
X-52016376Y-4847893D01*
D11*
X-52683040Y-5085989D02*
X-52683040Y-4609798D01*
D11*
X-52159232Y-6085989D02*
X-52254468Y-6133608D01*
D11*
X-52063992Y-5990751D02*
X-52159232Y-6085989D01*
D11*
X-52016376Y-5895513D02*
X-52063992Y-5990751D01*
D11*
X-52016376Y-5705036D02*
X-52016376Y-5895513D01*
D11*
X-52063992Y-5609798D02*
X-52016376Y-5705036D01*
D11*
X-52159232Y-5514560D02*
X-52063992Y-5609798D01*
D11*
X-52254468Y-5466941D02*
X-52159232Y-5514560D01*
D11*
X-52397328Y-5419322D02*
X-52254468Y-5466941D01*
D11*
X-52635424Y-5419322D02*
X-52397328Y-5419322D01*
D11*
X-52778280Y-5466941D02*
X-52635424Y-5419322D01*
D11*
X-52873516Y-5514560D02*
X-52778280Y-5466941D01*
D11*
X-52968756Y-5609798D02*
X-52873516Y-5514560D01*
D11*
X-53016376Y-5705036D02*
X-52968756Y-5609798D01*
D11*
X-53016376Y-5895513D02*
X-53016376Y-5705036D01*
D11*
X-52968756Y-5990751D02*
X-53016376Y-5895513D01*
D11*
X-52873516Y-6085989D02*
X-52968756Y-5990751D01*
D11*
X-52778280Y-6133608D02*
X-52873516Y-6085989D01*
D11*
X-52635424Y-6133608D02*
X-52778280Y-6133608D01*
D11*
X-52635424Y-6133608D02*
X-52635424Y-5895513D01*
D11*
X-54936376Y3580677D02*
X-53936376Y3580677D01*
D11*
X-53936376Y2961630D02*
X-53936376Y3580677D01*
D11*
X-54412564Y3199725D02*
X-54412564Y3580677D01*
D11*
X-54936376Y2961630D02*
X-54936376Y3580677D01*
D11*
X-54936376Y2437820D02*
X-53936376Y2818773D01*
D11*
X-54936376Y2437820D02*
X-53936376Y2056868D01*
D11*
X-54936376Y1628297D02*
X-53936376Y1628297D01*
D11*
X-53936376Y1294963D02*
X-53936376Y1961630D01*
D11*
X-54079232Y866392D02*
X-54126852Y961630D01*
D11*
X-53936376Y723535D02*
X-54079232Y866392D01*
D11*
X-54936376Y723535D02*
X-53936376Y723535D01*
D11*
X-55269708Y-800274D02*
X-54269708Y-800274D01*
D11*
X-54317328Y-705036D02*
X-54412564Y-800274D01*
D11*
X-54269708Y-609798D02*
X-54317328Y-705036D01*
D11*
X-54269708Y-466941D02*
X-54269708Y-609798D01*
D11*
X-54317328Y-371703D02*
X-54269708Y-466941D01*
D11*
X-54412564Y-276465D02*
X-54317328Y-371703D01*
D11*
X-54555424Y-228846D02*
X-54412564Y-276465D01*
D11*
X-54650660Y-228846D02*
X-54555424Y-228846D01*
D11*
X-54793516Y-276465D02*
X-54650660Y-228846D01*
D11*
X-54888756Y-371703D02*
X-54793516Y-276465D01*
D11*
X-54936376Y-466941D02*
X-54888756Y-371703D01*
D11*
X-54936376Y-609798D02*
X-54936376Y-466941D01*
D11*
X-54888756Y-705036D02*
X-54936376Y-609798D01*
D11*
X-54793516Y-800274D02*
X-54888756Y-705036D01*
D11*
X-53936376Y-1752655D02*
X-53936376Y-1228846D01*
D11*
X-54317328Y-1466941D02*
X-53936376Y-1752655D01*
D11*
X-54317328Y-1609798D02*
X-54317328Y-1466941D01*
D11*
X-54364944Y-1705036D02*
X-54317328Y-1609798D01*
D11*
X-54412564Y-1752655D02*
X-54364944Y-1705036D01*
D11*
X-54555424Y-1800274D02*
X-54412564Y-1752655D01*
D11*
X-54650660Y-1800274D02*
X-54555424Y-1800274D01*
D11*
X-54793516Y-1752655D02*
X-54650660Y-1800274D01*
D11*
X-54888756Y-1657417D02*
X-54793516Y-1752655D01*
D11*
X-54936376Y-1514560D02*
X-54888756Y-1657417D01*
D11*
X-54936376Y-1371703D02*
X-54936376Y-1514560D01*
D11*
X-54888756Y-1228846D02*
X-54936376Y-1371703D01*
D11*
X-54841136Y-1181227D02*
X-54888756Y-1228846D01*
D11*
X-54745900Y-1133608D02*
X-54841136Y-1181227D01*
D11*
X-54936376Y-2133608D02*
X-53936376Y-2133608D01*
D11*
X-54745900Y-2133608D02*
X-54269708Y-2609798D01*
D11*
X-54936376Y-2657417D02*
X-54555424Y-2324084D01*
D11*
X-55269708Y-2847893D02*
X-53745900Y-3705036D01*
D11*
X-54936376Y-3990750D02*
X-53936376Y-3990750D01*
D11*
X-53936376Y-4419322D02*
X-53936376Y-3990750D01*
D11*
X-53983992Y-4562179D02*
X-53936376Y-4419322D01*
D11*
X-54031612Y-4609798D02*
X-53983992Y-4562179D01*
D11*
X-54126852Y-4657417D02*
X-54031612Y-4609798D01*
D11*
X-54222088Y-4657417D02*
X-54126852Y-4657417D01*
D11*
X-54317328Y-4609798D02*
X-54222088Y-4657417D01*
D11*
X-54364944Y-4562179D02*
X-54317328Y-4609798D01*
D11*
X-54412564Y-4419322D02*
X-54364944Y-4562179D01*
D11*
X-54412564Y-3990750D02*
X-54412564Y-4419322D01*
D11*
X-54936376Y-4657417D02*
X-54412564Y-4324084D01*
D11*
X-54555424Y-5514560D02*
X-54555424Y-4943132D01*
D11*
X-54460184Y-5514560D02*
X-54555424Y-5514560D01*
D11*
X-54364944Y-5466941D02*
X-54460184Y-5514560D01*
D11*
X-54317328Y-5419322D02*
X-54364944Y-5466941D01*
D11*
X-54269708Y-5324084D02*
X-54317328Y-5419322D01*
D11*
X-54269708Y-5181227D02*
X-54269708Y-5324084D01*
D11*
X-54317328Y-5085989D02*
X-54269708Y-5181227D01*
D11*
X-54412564Y-4990751D02*
X-54317328Y-5085989D01*
D11*
X-54555424Y-4943132D02*
X-54412564Y-4990751D01*
D11*
X-54650660Y-4943132D02*
X-54555424Y-4943132D01*
D11*
X-54793516Y-4990751D02*
X-54650660Y-4943132D01*
D11*
X-54888756Y-5085989D02*
X-54793516Y-4990751D01*
D11*
X-54936376Y-5181227D02*
X-54888756Y-5085989D01*
D11*
X-54936376Y-5324084D02*
X-54936376Y-5181227D01*
D11*
X-54888756Y-5419322D02*
X-54936376Y-5324084D01*
D11*
X-54793516Y-5514560D02*
X-54888756Y-5419322D01*
D11*
X-54745900Y-5895513D02*
X-53936376Y-5895513D01*
D11*
X-54888756Y-5943132D02*
X-54745900Y-5895513D01*
D11*
X-54936376Y-6038370D02*
X-54888756Y-5943132D01*
D11*
X-54936376Y-6133608D02*
X-54936376Y-6038370D01*
D11*
X-54269708Y-6085989D02*
X-54269708Y-5752655D01*
D11*
X-54936376Y-6419322D02*
X-54269708Y-6419322D01*
D11*
X-54412564Y-6466941D02*
X-54555424Y-6419322D01*
D11*
X-54317328Y-6562179D02*
X-54412564Y-6466941D01*
D11*
X-54269708Y-6657417D02*
X-54317328Y-6562179D01*
D11*
X-54269708Y-6800274D02*
X-54269708Y-6657417D01*
D11*
X-53983992Y-7133608D02*
X-53936376Y-7276465D01*
D11*
X-54126852Y-7038370D02*
X-53983992Y-7133608D01*
D11*
X-54364944Y-6990751D02*
X-54126852Y-7038370D01*
D11*
X-54507804Y-6990751D02*
X-54364944Y-6990751D01*
D11*
X-54745900Y-7038370D02*
X-54507804Y-6990751D01*
D11*
X-54888756Y-7133608D02*
X-54745900Y-7038370D01*
D11*
X-54936376Y-7276465D02*
X-54888756Y-7133608D01*
D11*
X-54936376Y-7371703D02*
X-54936376Y-7276465D01*
D11*
X-54888756Y-7514560D02*
X-54936376Y-7371703D01*
D11*
X-54745900Y-7609798D02*
X-54888756Y-7514560D01*
D11*
X-54507804Y-7657417D02*
X-54745900Y-7609798D01*
D11*
X-54364944Y-7657417D02*
X-54507804Y-7657417D01*
D11*
X-54126852Y-7609798D02*
X-54364944Y-7657417D01*
D11*
X-53983992Y-7514560D02*
X-54126852Y-7609798D01*
D11*
X-53936376Y-7371703D02*
X-53983992Y-7514560D01*
D11*
X-53936376Y-7276465D02*
X-53936376Y-7371703D01*
D11*
X-53983992Y-7990751D02*
X-53936376Y-7943132D01*
D11*
X-53936376Y-8038370D02*
X-53983992Y-7990751D01*
D11*
X-53888756Y-7990751D02*
X-53936376Y-8038370D01*
D11*
X-53936376Y-7943132D02*
X-53888756Y-7990751D01*
D11*
X-54936376Y-7990751D02*
X-54269708Y-7990751D01*
D11*
X-54936376Y-8895512D02*
X-53936376Y-8895512D01*
D11*
X-54317328Y-8800274D02*
X-54412564Y-8895512D01*
D11*
X-54269708Y-8705036D02*
X-54317328Y-8800274D01*
D11*
X-54269708Y-8562179D02*
X-54269708Y-8705036D01*
D11*
X-54317328Y-8466941D02*
X-54269708Y-8562179D01*
D11*
X-54412564Y-8371703D02*
X-54317328Y-8466941D01*
D11*
X-54555424Y-8324084D02*
X-54412564Y-8371703D01*
D11*
X-54650660Y-8324084D02*
X-54555424Y-8324084D01*
D11*
X-54793516Y-8371703D02*
X-54650660Y-8324084D01*
D11*
X-54888756Y-8466941D02*
X-54793516Y-8371703D01*
D11*
X-54936376Y-8562179D02*
X-54888756Y-8466941D01*
D11*
X-54936376Y-8705036D02*
X-54936376Y-8562179D01*
D11*
X-54888756Y-8800274D02*
X-54936376Y-8705036D01*
D11*
X-54793516Y-8895512D02*
X-54888756Y-8800274D01*
D11*
X-54126852Y-9657417D02*
X-54174468Y-9657417D01*
D11*
X-54031612Y-9705036D02*
X-54126852Y-9657417D01*
D11*
X-53983992Y-9752655D02*
X-54031612Y-9705036D01*
D11*
X-53936376Y-9847893D02*
X-53983992Y-9752655D01*
D11*
X-53936376Y-10038370D02*
X-53936376Y-9847893D01*
D11*
X-53983992Y-10133608D02*
X-53936376Y-10038370D01*
D11*
X-54031612Y-10181227D02*
X-53983992Y-10133608D01*
D11*
X-54126852Y-10228846D02*
X-54031612Y-10181227D01*
D11*
X-54222088Y-10228846D02*
X-54126852Y-10228846D01*
D11*
X-54317328Y-10181227D02*
X-54222088Y-10228846D01*
D11*
X-54460184Y-10085989D02*
X-54317328Y-10181227D01*
D11*
X-54936376Y-9609798D02*
X-54460184Y-10085989D01*
D11*
X-54936376Y-10276465D02*
X-54936376Y-9609798D01*
D11*
X-53983992Y-10705036D02*
X-53936376Y-10847893D01*
D11*
X-54126852Y-10609798D02*
X-53983992Y-10705036D01*
D11*
X-54364944Y-10562179D02*
X-54126852Y-10609798D01*
D11*
X-54507804Y-10562179D02*
X-54364944Y-10562179D01*
D11*
X-54745900Y-10609798D02*
X-54507804Y-10562179D01*
D11*
X-54888756Y-10705036D02*
X-54745900Y-10609798D01*
D11*
X-54936376Y-10847893D02*
X-54888756Y-10705036D01*
D11*
X-54936376Y-10943131D02*
X-54936376Y-10847893D01*
D11*
X-54888756Y-11085989D02*
X-54936376Y-10943131D01*
D11*
X-54745900Y-11181227D02*
X-54888756Y-11085989D01*
D11*
X-54507804Y-11228846D02*
X-54745900Y-11181227D01*
D11*
X-54364944Y-11228846D02*
X-54507804Y-11228846D01*
D11*
X-54126852Y-11181227D02*
X-54364944Y-11228846D01*
D11*
X-53983992Y-11085989D02*
X-54126852Y-11181227D01*
D11*
X-53936376Y-10943131D02*
X-53983992Y-11085989D01*
D11*
X-53936376Y-10847893D02*
X-53936376Y-10943131D01*
D11*
X-54126852Y-11562179D02*
X-54174468Y-11562179D01*
D11*
X-54031612Y-11609798D02*
X-54126852Y-11562179D01*
D11*
X-53983992Y-11657417D02*
X-54031612Y-11609798D01*
D11*
X-53936376Y-11752655D02*
X-53983992Y-11657417D01*
D11*
X-53936376Y-11943131D02*
X-53936376Y-11752655D01*
D11*
X-53983992Y-12038370D02*
X-53936376Y-11943131D01*
D11*
X-54031612Y-12085989D02*
X-53983992Y-12038370D01*
D11*
X-54126852Y-12133608D02*
X-54031612Y-12085989D01*
D11*
X-54222088Y-12133608D02*
X-54126852Y-12133608D01*
D11*
X-54317328Y-12085989D02*
X-54222088Y-12133608D01*
D11*
X-54460184Y-11990751D02*
X-54317328Y-12085989D01*
D11*
X-54936376Y-11514560D02*
X-54460184Y-11990751D01*
D11*
X-54936376Y-12181227D02*
X-54936376Y-11514560D01*
D11*
X-54126852Y-12514560D02*
X-54174468Y-12514560D01*
D11*
X-54031612Y-12562179D02*
X-54126852Y-12514560D01*
D11*
X-53983992Y-12609798D02*
X-54031612Y-12562179D01*
D11*
X-53936376Y-12705036D02*
X-53983992Y-12609798D01*
D11*
X-53936376Y-12895512D02*
X-53936376Y-12705036D01*
D11*
X-53983992Y-12990750D02*
X-53936376Y-12895512D01*
D11*
X-54031612Y-13038370D02*
X-53983992Y-12990750D01*
D11*
X-54126852Y-13085988D02*
X-54031612Y-13038370D01*
D11*
X-54222088Y-13085988D02*
X-54126852Y-13085988D01*
D11*
X-54317328Y-13038370D02*
X-54222088Y-13085988D01*
D11*
X-54460184Y-12943131D02*
X-54317328Y-13038370D01*
D11*
X-54936376Y-12466941D02*
X-54460184Y-12943131D01*
D11*
X-54936376Y-13133608D02*
X-54936376Y-12466941D01*
D10*
X-32650000Y-12000000D02*
X-31350000Y-12000000D01*
D10*
X-32800001Y-6900000D02*
X-36699999Y-6900000D01*
D10*
X-32650000Y-12100000D02*
X-32650000Y-12000000D01*
D10*
X-32650000Y-12100000D02*
X-36700000Y-12100000D01*
D10*
X-42250000Y18000000D02*
X-44250000Y18000000D01*
D10*
X-40500000Y17250000D02*
X-40500000Y13250000D01*
D10*
X-46000000Y17250000D02*
X-46000000Y13250000D01*
D10*
X-44250000Y12500000D02*
X-42250000Y12500000D01*
D10*
X-21100000Y18850000D02*
X-18700000Y18850000D01*
D10*
X-20300000Y15650000D02*
X-18700000Y15650000D01*
D10*
X-31750000Y11300000D02*
X-31750000Y17050000D01*
D10*
X-24250000Y13050000D02*
X-24250000Y17050000D01*
D10*
X-24432000Y-18968000D02*
X-24432000Y-17568000D01*
D10*
X-23032000Y-18968000D02*
X-23032000Y-17568000D01*
D12*
X-26750000Y-1250000D02*
X-26750000Y-1750000D01*
D12*
X-26750000Y-7250000D02*
X-26750000Y-7750000D01*
D13*
X-26750000Y-1750000D02*
X-26750000Y-1750000D01*
D12*
X-22750000Y-7750000D02*
X-22250000Y-7750000D01*
D12*
X-22250000Y-7750000D02*
X-22250000Y-7250000D01*
D13*
X-26750000Y-1750000D02*
X-26750000Y-1750000D01*
D12*
X-22250000Y-1750000D02*
X-22250000Y-1250000D01*
D12*
X-22250000Y-1250000D02*
X-22750000Y-1250000D01*
D12*
X-26750000Y-7750000D02*
X-26250000Y-7750000D01*
D10*
X-47380000Y16730000D02*
X-62620000Y16730000D01*
D10*
X-62620000Y19270000D02*
X-47380000Y19270000D01*
D10*
X-61725000Y15480000D02*
X-61350000Y16230000D01*
D10*
X-61350000Y16230000D02*
X-60975000Y15480000D01*
D10*
X-47380000Y19270000D02*
X-47380000Y16730000D01*
D10*
X-60975000Y15480000D02*
X-61725000Y15480000D01*
D10*
X-62620000Y16730000D02*
X-62620000Y19270000D01*
D10*
X-36750000Y12500000D02*
X-34750000Y12500000D01*
D10*
X-38500000Y13250000D02*
X-38500000Y17250000D01*
D10*
X-33000000Y13250000D02*
X-33000000Y17250000D01*
D10*
X-34750000Y18000000D02*
X-36750000Y18000000D01*
D10*
X-14540000Y-19050000D02*
X-14540000Y19050000D01*
D10*
X-9460000Y19050000D02*
X-9460000Y-19050000D01*
D10*
X-15790000Y18155000D02*
X-15040000Y17780000D01*
D10*
X-15040000Y17780000D02*
X-15790000Y17405000D01*
D10*
X-9460000Y-19050000D02*
X-14540000Y-19050000D01*
D10*
X-15790000Y17405000D02*
X-15790000Y18155000D01*
D10*
X-14540000Y19050000D02*
X-9460000Y19050000D01*
D10*
X-47150000Y2900000D02*
X-47150000Y2000000D01*
D10*
X-46250000Y2900000D02*
X-47150000Y2900000D01*
D14*
X-42350000Y-1600000D02*
X-42350000Y-1600000D01*
D10*
X-39350000Y2900000D02*
X-39350000Y2000000D01*
D10*
X-40250000Y-4900000D02*
X-39350000Y-4900000D01*
D10*
X-40250000Y2900000D02*
X-39350000Y2900000D01*
D10*
X-46250000Y-4900000D02*
X-47150000Y-4900000D01*
D10*
X-47150000Y-4900000D02*
X-47150000Y-4000000D01*
D10*
X-66000000Y13850000D02*
X-59700000Y13850000D01*
D10*
X-66000000Y650000D02*
X-59700000Y650000D01*
D10*
X-59700000Y13850000D02*
X-59700000Y11350000D01*
D10*
X-59700000Y650000D02*
X-59700000Y3150000D01*
D10*
X-44620000Y-16730000D02*
X-29380000Y-16730000D01*
D10*
X-29380000Y-19270000D02*
X-44620000Y-19270000D01*
D10*
X-30275000Y-15480000D02*
X-30650000Y-16230000D01*
D10*
X-30650000Y-16230000D02*
X-31025000Y-15480000D01*
D10*
X-44620000Y-19270000D02*
X-44620000Y-16730000D01*
D10*
X-31025000Y-15480000D02*
X-30275000Y-15480000D01*
D10*
X-29380000Y-16730000D02*
X-29380000Y-19270000D01*
D10*
X-66000000Y-1900000D02*
X-59700000Y-1900000D01*
D10*
X-66000000Y-15100000D02*
X-59700000Y-15100000D01*
D10*
X-59700000Y-1900000D02*
X-59700000Y-4400000D01*
D10*
X-59700000Y-15100000D02*
X-59700000Y-12600000D01*
D12*
X-26750000Y7250000D02*
X-26750000Y6750000D01*
D12*
X-26750000Y1250000D02*
X-26750000Y750000D01*
D13*
X-26750000Y6750000D02*
X-26750000Y6750000D01*
D12*
X-22750000Y750000D02*
X-22250000Y750000D01*
D12*
X-22250000Y750000D02*
X-22250000Y1250000D01*
D13*
X-26750000Y6750000D02*
X-26750000Y6750000D01*
D12*
X-22250000Y6750000D02*
X-22250000Y7250000D01*
D12*
X-22250000Y7250000D02*
X-22750000Y7250000D01*
D12*
X-26750000Y750000D02*
X-26250000Y750000D01*
D10*
X-22164000Y-18968000D02*
X-22164000Y-17568000D01*
D10*
X-20764000Y-18968000D02*
X-20764000Y-17568000D01*
D10*
X-26700000Y-18968000D02*
X-26700000Y-17568000D01*
D10*
X-25300000Y-18968000D02*
X-25300000Y-17568000D01*
D10*
X-47880000Y-19270000D02*
X-63120000Y-19270000D01*
D10*
X-63120000Y-19270000D02*
X-63120000Y-16730000D01*
D10*
X-61815000Y-16378000D02*
X-62190000Y-15628000D01*
D10*
X-47880000Y-16730000D02*
X-47880000Y-19270000D01*
D10*
X-62190000Y-15628000D02*
X-61440000Y-15628000D01*
D10*
X-61440000Y-15628000D02*
X-61815000Y-16378000D01*
D10*
X-63120000Y-16730000D02*
X-47880000Y-16730000D01*
G75*
M02*
