%FSLAX46Y46*%
%MOMM*%
%AMPS31*
4,1,4,
-0.365000,3.125000,
-0.187500,3.125000,
-0.187500,2.370000,
-0.365000,2.370000,
-0.365000,3.125000,
0*
4,1,4,
-0.925000,0.550000,
-0.100000,0.550000,
-0.100000,-0.550000,
-0.925000,-0.550000,
-0.925000,0.550000,
0*
4,1,4,
0.075000,0.550000,
0.900000,0.550000,
0.900000,-0.550000,
0.075000,-0.550000,
0.075000,0.550000,
0*
4,1,4,
-0.925000,-0.700000,
-0.100000,-0.700000,
-0.100000,-1.800000,
-0.925000,-1.800000,
-0.925000,-0.700000,
0*
4,1,4,
0.075000,1.825000,
0.900000,1.825000,
0.900000,0.725000,
0.075000,0.725000,
0.075000,1.825000,
0*
4,1,4,
-0.365000,-2.370000,
-0.185000,-2.370000,
-0.185000,-3.125000,
-0.365000,-3.125000,
-0.365000,-2.370000,
0*
4,1,4,
0.185000,-2.370000,
0.365000,-2.370000,
0.365000,-3.125000,
0.185000,-3.125000,
0.185000,-2.370000,
0*
4,1,4,
-0.925000,1.825000,
-0.100000,1.825000,
-0.100000,0.725000,
-0.925000,0.725000,
-0.925000,1.825000,
0*
4,1,4,
0.185000,3.125000,
0.365000,3.125000,
0.365000,2.370000,
0.185000,2.370000,
0.185000,3.125000,
0*
4,1,4,
0.075000,-0.700000,
0.900000,-0.700000,
0.900000,-1.800000,
0.075000,-1.800000,
0.075000,-0.700000,
0*
%
%ADD31PS31*%
%AMPS15*
21,1,1.000000,1.600000,0.000000,0.000000,0.000000*
%
%ADD15PS15*%
%AMPS14*
21,1,1.000000,1.600000,0.000000,0.000000,180.000000*
%
%ADD14PS14*%
%AMPS33*
21,1,0.200000,0.875000,0.000000,0.000000,0.000000*
%
%ADD33PS33*%
%AMPS35*
21,1,0.200000,0.875000,0.000000,0.000000,90.000000*
%
%ADD35PS35*%
%AMPS32*
21,1,0.200000,0.875000,0.000000,0.000000,180.000000*
%
%ADD32PS32*%
%AMPS34*
21,1,0.200000,0.875000,0.000000,0.000000,270.000000*
%
%ADD34PS34*%
%AMPS10*
21,1,0.600000,1.500000,0.000000,0.000000,90.000000*
%
%ADD10PS10*%
%AMPS11*
21,1,0.600000,1.500000,0.000000,0.000000,270.000000*
%
%ADD11PS11*%
%AMPS21*
21,1,1.250000,1.750000,0.000000,0.000000,0.000000*
%
%ADD21PS21*%
%AMPS38*
21,1,0.600000,1.150000,0.000000,0.000000,270.000000*
%
%ADD38PS38*%
%AMPS36*
21,1,3.200000,3.200000,0.000000,0.000000,180.000000*
%
%ADD36PS36*%
%AMPS22*
21,1,3.500000,1.750000,0.000000,0.000000,0.000000*
%
%ADD22PS22*%
%AMPS39*
21,1,2.180000,2.000000,0.000000,0.000000,270.000000*
%
%ADD39PS39*%
%AMPS40*
21,1,0.300000,1.150000,0.000000,0.000000,270.000000*
%
%ADD40PS40*%
%AMPS17*
21,1,0.700000,1.000000,0.000000,0.000000,270.000000*
%
%ADD17PS17*%
%AMPS42*
21,1,1.400000,1.200000,0.000000,0.000000,0.000000*
%
%ADD42PS42*%
%AMPS12*
1,1,0.200000,0.200000,-0.100000*
1,1,0.200000,-0.200000,-0.100000*
21,1,0.400000,0.400000,0.000000,0.000000,90.000000*
21,1,0.200000,0.600000,0.000000,0.000000,90.000000*
1,1,0.200000,0.200000,0.100000*
1,1,0.200000,-0.200000,0.100000*
%
%ADD12PS12*%
%AMPS41*
1,1,0.360000,-0.220000,-0.195000*
1,1,0.360000,-0.220000,0.195000*
21,1,0.800000,0.390000,0.000000,0.000000,0.000000*
21,1,0.440000,0.750000,0.000000,0.000000,0.000000*
1,1,0.360000,0.220000,-0.195000*
1,1,0.360000,0.220000,0.195000*
%
%ADD41PS41*%
%AMPS23*
1,1,0.360000,0.195000,-0.220000*
1,1,0.360000,-0.195000,-0.220000*
21,1,0.800000,0.390000,0.000000,0.000000,90.000000*
21,1,0.440000,0.750000,0.000000,0.000000,90.000000*
1,1,0.360000,0.195000,0.220000*
1,1,0.360000,-0.195000,0.220000*
%
%ADD23PS23*%
%AMPS13*
1,1,0.360000,0.220000,0.195000*
1,1,0.360000,0.220000,-0.195000*
21,1,0.800000,0.390000,0.000000,0.000000,180.000000*
21,1,0.440000,0.750000,0.000000,0.000000,180.000000*
1,1,0.360000,-0.220000,0.195000*
1,1,0.360000,-0.220000,-0.195000*
%
%ADD13PS13*%
%AMPS25*
1,1,0.360000,-0.195000,0.220000*
1,1,0.360000,0.195000,0.220000*
21,1,0.800000,0.390000,0.000000,0.000000,270.000000*
21,1,0.440000,0.750000,0.000000,0.000000,270.000000*
1,1,0.360000,-0.195000,-0.220000*
1,1,0.360000,0.195000,-0.220000*
%
%ADD25PS25*%
%AMPS24*
1,1,0.360000,0.220000,-0.220000*
1,1,0.360000,-0.220000,-0.220000*
21,1,0.800000,0.440000,0.000000,0.000000,90.000000*
21,1,0.440000,0.800000,0.000000,0.000000,90.000000*
1,1,0.360000,0.220000,0.220000*
1,1,0.360000,-0.220000,0.220000*
%
%ADD24PS24*%
%AMPS19*
1,1,0.500000,0.375000,-0.250000*
1,1,0.500000,-0.375000,-0.250000*
21,1,1.000000,0.750000,0.000000,0.000000,90.000000*
21,1,0.500000,1.250000,0.000000,0.000000,90.000000*
1,1,0.500000,0.375000,0.250000*
1,1,0.500000,-0.375000,0.250000*
%
%ADD19PS19*%
%AMPS26*
1,1,0.500000,0.250000,0.375000*
1,1,0.500000,0.250000,-0.375000*
21,1,1.000000,0.750000,0.000000,0.000000,180.000000*
21,1,0.500000,1.250000,0.000000,0.000000,180.000000*
1,1,0.500000,-0.250000,0.375000*
1,1,0.500000,-0.250000,-0.375000*
%
%ADD26PS26*%
%AMPS37*
1,1,0.500000,-0.375000,0.250000*
1,1,0.500000,0.375000,0.250000*
21,1,1.000000,0.750000,0.000000,0.000000,270.000000*
21,1,0.500000,1.250000,0.000000,0.000000,270.000000*
1,1,0.500000,-0.375000,-0.250000*
1,1,0.500000,0.375000,-0.250000*
%
%ADD37PS37*%
%AMPS20*
1,1,0.240000,-0.130000,-0.330000*
1,1,0.240000,-0.130000,0.330000*
21,1,0.500000,0.660000,0.000000,0.000000,0.000000*
21,1,0.260000,0.900000,0.000000,0.000000,0.000000*
1,1,0.240000,0.130000,-0.330000*
1,1,0.240000,0.130000,0.330000*
%
%ADD20PS20*%
%AMPS18*
1,1,0.240000,0.330000,-0.130000*
1,1,0.240000,-0.330000,-0.130000*
21,1,0.500000,0.660000,0.000000,0.000000,90.000000*
21,1,0.260000,0.900000,0.000000,0.000000,90.000000*
1,1,0.240000,0.330000,0.130000*
1,1,0.240000,-0.330000,0.130000*
%
%ADD18PS18*%
%AMPS16*
1,1,0.240000,-0.330000,0.130000*
1,1,0.240000,0.330000,0.130000*
21,1,0.500000,0.660000,0.000000,0.000000,270.000000*
21,1,0.260000,0.900000,0.000000,0.000000,270.000000*
1,1,0.240000,-0.330000,-0.130000*
1,1,0.240000,0.330000,-0.130000*
%
%ADD16PS16*%
%AMPS29*
1,1,0.230000,0.000000,0.285000*
4,1,4,
-0.115000,-0.400000,
-0.115000,0.285000,
0.115000,0.285000,
0.115000,-0.400000,
-0.115000,-0.400000,
0*
%
%ADD29PS29*%
%AMPS28*
1,1,0.230000,-0.285000,0.000000*
4,1,4,
0.400000,-0.115000,
-0.285000,-0.115000,
-0.285000,0.115000,
0.400000,0.115000,
0.400000,-0.115000,
0*
%
%ADD28PS28*%
%AMPS30*
1,1,0.230000,0.000000,-0.285000*
4,1,4,
0.115000,0.400000,
0.115000,-0.285000,
-0.115000,-0.285000,
-0.115000,0.400000,
0.115000,0.400000,
0*
%
%ADD30PS30*%
%AMPS27*
1,1,0.230000,0.285000,0.000000*
4,1,4,
-0.400000,0.115000,
0.285000,0.115000,
0.285000,-0.115000,
-0.400000,-0.115000,
-0.400000,0.115000,
0*
%
%ADD27PS27*%
G01*
G01*
%LPD*%
G75*
D10*
X-32050000Y-10135000D03*
D10*
X-32050000Y-7595000D03*
D11*
X-37450000Y-10135000D03*
D10*
X-32050000Y-11405000D03*
D10*
X-32050000Y-8865000D03*
D11*
X-37450000Y-7595000D03*
D11*
X-37450000Y-8865000D03*
D11*
X-37450000Y-11405000D03*
D12*
X-44750000Y-7450000D03*
D12*
X-44750000Y-6550000D03*
D13*
X-50780000Y-24000D03*
D13*
X-49280000Y-24000D03*
D14*
X-41350000Y18450000D03*
D15*
X-45150000Y12050000D03*
D15*
X-41350000Y12050000D03*
D14*
X-45150000Y18450000D03*
D16*
X-23732000Y-14018000D03*
D16*
X-23732000Y-15518000D03*
D17*
X-20700000Y17250000D03*
D17*
X-18300000Y16300000D03*
D17*
X-20700000Y18200000D03*
D17*
X-18300000Y18200000D03*
D17*
X-20700000Y16300000D03*
D16*
X-58624000Y2798000D03*
D16*
X-58624000Y1298000D03*
D16*
X-21464000Y-14018000D03*
D16*
X-21464000Y-15518000D03*
D18*
X-56960000Y11666000D03*
D18*
X-56960000Y13166000D03*
D19*
X-22999992Y12050056D03*
D19*
X-22999992Y14050056D03*
D16*
X-56960000Y2798000D03*
D16*
X-56960000Y1298000D03*
D20*
X-37500000Y-5500000D03*
D20*
X-36000000Y-5500000D03*
D16*
X-21760000Y9198000D03*
D16*
X-21760000Y7698000D03*
D21*
X-25700000Y12000000D03*
D21*
X-28000000Y12000000D03*
D21*
X-30300000Y12000000D03*
D22*
X-28000000Y18100000D03*
D23*
X-45750000Y6250000D03*
D23*
X-45750000Y4750000D03*
D24*
X-23732000Y-18568000D03*
D24*
X-23732000Y-16968000D03*
D25*
X-47250000Y-8250000D03*
D25*
X-47250000Y-6750000D03*
D25*
X-35250000Y4750000D03*
D25*
X-35250000Y6250000D03*
D23*
X-44250000Y6250000D03*
D23*
X-44250000Y4750000D03*
D26*
X-18500056Y14250008D03*
D26*
X-20500056Y14250008D03*
D27*
X-26250000Y-4750000D03*
D28*
X-22750000Y-4750000D03*
D28*
X-22750000Y-4250000D03*
D28*
X-22750000Y-2250000D03*
D27*
X-26250000Y-3750000D03*
D28*
X-22750000Y-3250000D03*
D27*
X-26250000Y-5750000D03*
D27*
X-26250000Y-6250000D03*
D27*
X-26250000Y-5250000D03*
D28*
X-22750000Y-6250000D03*
D27*
X-26250000Y-2750000D03*
D29*
X-23750000Y-7250000D03*
D27*
X-26250000Y-4250000D03*
D28*
X-22750000Y-5250000D03*
D27*
X-26250000Y-2250000D03*
D30*
X-23750000Y-1750000D03*
D29*
X-25250000Y-7250000D03*
D27*
X-26250000Y-6750000D03*
D28*
X-22750000Y-6750000D03*
D28*
X-22750000Y-5750000D03*
D27*
X-26250000Y-3250000D03*
D28*
X-22750000Y-3750000D03*
D31*
X-24500000Y-4500000D03*
D28*
X-22750000Y-2750000D03*
D30*
X-25250000Y-1750000D03*
D13*
X-25250000Y-500000D03*
D13*
X-23750000Y-500000D03*
D15*
X-37650000Y12050000D03*
D14*
X-33850000Y18450000D03*
D14*
X-37650000Y18450000D03*
D15*
X-33850000Y12050000D03*
D13*
X-40836000Y-11524000D03*
D13*
X-39336000Y-11524000D03*
D23*
X-41250000Y6250000D03*
D23*
X-41250000Y4750000D03*
D32*
X-43050000Y2437500D03*
D33*
X-41450000Y-4437500D03*
D33*
X-41050000Y-4437500D03*
D34*
X-46687500Y-2400000D03*
D32*
X-40650000Y2437500D03*
D34*
X-46687500Y-2000000D03*
D32*
X-42250000Y2437500D03*
D33*
X-45050000Y-4437500D03*
D34*
X-46687500Y-1600000D03*
D34*
X-46687500Y1600000D03*
D34*
X-46687500Y800000D03*
D33*
X-42250000Y-4437500D03*
D34*
X-46687500Y-400000D03*
D35*
X-39812500Y1200000D03*
D35*
X-39812500Y-3600000D03*
D33*
X-44250000Y-4437500D03*
D32*
X-45050000Y2437500D03*
D35*
X-39812500Y-400000D03*
D32*
X-41050000Y2437500D03*
D33*
X-43050000Y-4437500D03*
D35*
X-39812500Y0D03*
D35*
X-39812500Y-1600000D03*
D33*
X-40650000Y-4437500D03*
D35*
X-39812500Y-2800000D03*
D32*
X-43450000Y2437500D03*
D34*
X-46687500Y-3200000D03*
D32*
X-41850000Y2437500D03*
D33*
X-43850000Y-4437500D03*
D35*
X-39812500Y-1200000D03*
D32*
X-41450000Y2437500D03*
D32*
X-45450000Y2437500D03*
D33*
X-45450000Y-4437500D03*
D35*
X-39812500Y-3200000D03*
D35*
X-39812500Y-800000D03*
D34*
X-46687500Y0D03*
D33*
X-44650000Y-4437500D03*
D33*
X-42650000Y-4437500D03*
D35*
X-39812500Y-2400000D03*
D34*
X-46687500Y-2800000D03*
D34*
X-46687500Y-800000D03*
D32*
X-42650000Y2437500D03*
D34*
X-46687500Y400000D03*
D32*
X-45850000Y2437500D03*
D32*
X-44250000Y2437500D03*
D33*
X-41850000Y-4437500D03*
D35*
X-39812500Y-2000000D03*
D34*
X-46687500Y1200000D03*
D32*
X-43850000Y2437500D03*
D35*
X-39812500Y400000D03*
D33*
X-43450000Y-4437500D03*
D34*
X-46687500Y-1200000D03*
D33*
X-45850000Y-4437500D03*
D35*
X-39812500Y800000D03*
D32*
X-44650000Y2437500D03*
D36*
X-43250000Y-1000000D03*
D35*
X-39812500Y1600000D03*
D34*
X-46687500Y-3600000D03*
D13*
X-25250000Y8000000D03*
D13*
X-23750000Y8000000D03*
D37*
X-23000008Y18049944D03*
D37*
X-23000008Y16049944D03*
D38*
X-60495000Y4050000D03*
D39*
X-61070000Y12360000D03*
D40*
X-60495000Y8500000D03*
D39*
X-65000000Y2140000D03*
D40*
X-60495000Y6000000D03*
D39*
X-61070000Y2140000D03*
D40*
X-60495000Y7500000D03*
D40*
X-60495000Y9000000D03*
D40*
X-60495000Y5500000D03*
D38*
X-60495000Y9650000D03*
D39*
X-65000000Y12360000D03*
D40*
X-60495000Y7000000D03*
D38*
X-60495000Y4850000D03*
D38*
X-60495000Y10450000D03*
D40*
X-60495000Y8000000D03*
D40*
X-60495000Y6500000D03*
D41*
X-36000000Y-4000000D03*
D41*
X-37500000Y-4000000D03*
D18*
X-58624000Y11666000D03*
D18*
X-58624000Y13166000D03*
D41*
X-36000000Y0D03*
D41*
X-37500000Y0D03*
D25*
X-43392000Y-8302000D03*
D25*
X-43392000Y-6802000D03*
D16*
X-58624000Y-12946000D03*
D16*
X-58624000Y-14446000D03*
D18*
X-56850000Y-4078000D03*
D18*
X-56850000Y-2578000D03*
D38*
X-60495000Y-11700000D03*
D39*
X-61070000Y-3390000D03*
D40*
X-60495000Y-7250000D03*
D39*
X-65000000Y-13610000D03*
D40*
X-60495000Y-9750000D03*
D39*
X-61070000Y-13610000D03*
D40*
X-60495000Y-8250000D03*
D40*
X-60495000Y-6750000D03*
D40*
X-60495000Y-10250000D03*
D38*
X-60495000Y-6100000D03*
D39*
X-65000000Y-3390000D03*
D40*
X-60495000Y-8750000D03*
D38*
X-60495000Y-10900000D03*
D38*
X-60495000Y-5300000D03*
D40*
X-60495000Y-7750000D03*
D40*
X-60495000Y-9250000D03*
D27*
X-26250000Y3750000D03*
D28*
X-22750000Y3750000D03*
D28*
X-22750000Y4250000D03*
D28*
X-22750000Y6250000D03*
D27*
X-26250000Y4750000D03*
D28*
X-22750000Y5250000D03*
D27*
X-26250000Y2750000D03*
D27*
X-26250000Y2250000D03*
D27*
X-26250000Y3250000D03*
D28*
X-22750000Y2250000D03*
D27*
X-26250000Y5750000D03*
D29*
X-23750000Y1250000D03*
D27*
X-26250000Y4250000D03*
D28*
X-22750000Y3250000D03*
D27*
X-26250000Y6250000D03*
D30*
X-23750000Y6750000D03*
D29*
X-25250000Y1250000D03*
D27*
X-26250000Y1750000D03*
D28*
X-22750000Y1750000D03*
D28*
X-22750000Y2750000D03*
D27*
X-26250000Y5250000D03*
D28*
X-22750000Y4750000D03*
D31*
X-24500000Y4000000D03*
D28*
X-22750000Y5750000D03*
D30*
X-25250000Y6750000D03*
D20*
X-34500000Y-5500000D03*
D20*
X-33000000Y-5500000D03*
D18*
X-58496000Y-4078000D03*
D18*
X-58496000Y-2578000D03*
D13*
X-25250000Y9500000D03*
D13*
X-23750000Y9500000D03*
D16*
X-42750000Y6250000D03*
D16*
X-42750000Y4750000D03*
D16*
X-26000000Y-14018000D03*
D16*
X-26000000Y-15518000D03*
D24*
X-21464000Y-18568000D03*
D24*
X-21464000Y-16968000D03*
D12*
X-45750000Y-7450000D03*
D12*
X-45750000Y-6550000D03*
D42*
X-37150000Y6300000D03*
D42*
X-39350000Y6300000D03*
D42*
X-39350000Y4700000D03*
D42*
X-37150000Y4700000D03*
D13*
X-50798000Y-3840000D03*
D13*
X-49298000Y-3840000D03*
D13*
X-50798000Y-2304000D03*
D13*
X-49298000Y-2304000D03*
D25*
X-42112000Y-8686000D03*
D25*
X-42112000Y-7186000D03*
D24*
X-26000000Y-18568000D03*
D24*
X-26000000Y-16968000D03*
D13*
X-50798000Y-5376000D03*
D13*
X-49298000Y-5376000D03*
M02*
