%FSLAX46Y46*%
%MOMM*%
%AMPS12*
21,1,3.100000,2.200000,0.000000,0.000000,180.000000*
%
%ADD12PS12*%
%AMPS11*
21,1,2.740000,0.700000,0.000000,0.000000,180.000000*
%
%ADD11PS11*%
%AMPS13*
1,1,1.900000,0.000000,0.000000*
%
%ADD13PS13*%
%AMPS10*
1,1,1.900000,0.000000,0.000000*
%
%ADD10PS10*%
%AMPS15*
1,1,1.900000,0.000000,0.000000*
%
%ADD15PS15*%
%AMPS14*
1,1,0.850000,0.000000,0.000000*
%
%ADD14PS14*%
G01*
G01*
%LPD*%
G75*
D10*
X-54230000Y-18000000D03*
D10*
X-61850000Y-18000000D03*
D10*
X-59310000Y-18000000D03*
D10*
X-51690000Y-18000000D03*
D10*
X-56770000Y-18000000D03*
D10*
X-49150000Y-18000000D03*
D11*
X1000000Y1750000D03*
D11*
X1000000Y-7250000D03*
D11*
X1000000Y-5250000D03*
D11*
X1000000Y-6250000D03*
D11*
X1000000Y3750000D03*
D12*
X-1600000Y9799986D03*
D11*
X1000000Y6750000D03*
D12*
X-1600000Y-9800014D03*
D11*
X1000000Y750000D03*
D11*
X1000000Y-250000D03*
D11*
X1000000Y5750000D03*
D11*
X1000000Y-2250000D03*
D11*
X1000000Y-1250000D03*
D11*
X1000000Y2750000D03*
D11*
X1000000Y4750000D03*
D11*
X1000000Y-4250000D03*
D11*
X1000000Y-3250000D03*
D10*
X-53730000Y18000000D03*
D10*
X-61350000Y18000000D03*
D10*
X-58810000Y18000000D03*
D10*
X-51190000Y18000000D03*
D10*
X-56270000Y18000000D03*
D10*
X-48650000Y18000000D03*
D13*
X-10730000Y-17780000D03*
D13*
X-10730000Y-12700000D03*
D13*
X-10730000Y-7620000D03*
D13*
X-10730000Y15240000D03*
D13*
X-13270000Y-15240000D03*
D13*
X-13270000Y10160000D03*
D13*
X-13270000Y-7620000D03*
D13*
X-10730000Y-2540000D03*
D13*
X-10730000Y7620000D03*
D13*
X-10730000Y-5080000D03*
D13*
X-10730000Y5080000D03*
D13*
X-10730000Y-15240000D03*
D13*
X-13270000Y-2540000D03*
D13*
X-13270000Y17780000D03*
D13*
X-10730000Y17780000D03*
D13*
X-13270000Y12700000D03*
D13*
X-10730000Y2540000D03*
D13*
X-13270000Y7620000D03*
D13*
X-13270000Y-5080000D03*
D13*
X-10730000Y-10160000D03*
D13*
X-13270000Y2540000D03*
D13*
X-13270000Y-12700000D03*
D13*
X-10730000Y10160000D03*
D13*
X-13270000Y5080000D03*
D13*
X-13270000Y-10160000D03*
D13*
X-10730000Y0D03*
D13*
X-13270000Y0D03*
D13*
X-13270000Y-17780000D03*
D13*
X-13270000Y15240000D03*
D13*
X-10730000Y12700000D03*
D14*
X-61570000Y10140000D03*
D14*
X-61570000Y4360000D03*
D15*
X-38270000Y-18000000D03*
D15*
X-30650000Y-18000000D03*
D15*
X-33190000Y-18000000D03*
D15*
X-40810000Y-18000000D03*
D15*
X-35730000Y-18000000D03*
D15*
X-43350000Y-18000000D03*
D14*
X-61570000Y-5610000D03*
D14*
X-61570000Y-11390000D03*
M02*
